<svg viewBox="0 0 43 60" fill="none" xmlns="http://www.w3.org/2000/svg">
<g clip-path="url(#clip0_217_195)">
<path d="M21.2483 59.8484L3.93276 55.0414L0.0739746 11.7617H42.4745L38.6118 55.0348L21.2483 59.8484Z" fill="#264DE4"/>
<path d="M35.3048 52.2793L38.6056 15.3004H21.2743V56.169L35.3048 52.2793Z" fill="#2965F1"/>
<path d="M8.92 31.3522L9.39568 36.6603H21.2742V31.3522H8.92ZM7.96399 20.6086L8.44648 25.9167H21.2742V20.6086H7.96399ZM21.2742 45.1379L21.2509 45.1441L15.3393 43.5479L14.9614 39.3145H9.63285L10.3765 47.649L21.2498 50.6673L21.2742 50.6606V45.1379Z" fill="#EBEBEB"/>
<path d="M10.0527 0H16.4815V2.68853H12.7413V5.37706H16.4819V8.06543H10.0527V0ZM17.7675 0H24.1964V2.33784H20.456V2.80537H24.1964V8.18244H17.7676V5.72742H21.5081V5.25989H17.7673V0H17.7675ZM25.4824 0H31.9113V2.33784H28.1709V2.80537H31.9113V8.18244H25.4824V5.72742H29.2228V5.25989H25.4825V0H25.4824Z" fill="black"/>
<path d="M33.5945 31.3522L34.5526 20.6086H21.2559V25.9167H28.7355L28.2525 31.3522H21.2559V36.6603H27.7922L27.176 43.5445L21.2557 45.1424V50.6648L32.1377 47.649L32.2175 46.7521L33.465 32.7776L33.5945 31.3522Z" fill="white"/>
</g>
<defs>
<clipPath id="clip0_217_195">
<rect width="42.5485" height="60" fill="white"/>
</clipPath>
</defs>
</svg>
