<svg viewBox="0 0 50 50" fill="none" xmlns="http://www.w3.org/2000/svg">
<g clip-path="url(#clip0_217_210)">
<path d="M44.5312 0H5.46875C2.44844 0 0 2.44844 0 5.46875V44.5312C0 47.5516 2.44844 50 5.46875 50H44.5312C47.5516 50 50 47.5516 50 44.5312V5.46875C50 2.44844 47.5516 0 44.5312 0Z" fill="#092E20"/>
<path d="M36.4017 18.3979V31.3327C36.4017 35.7897 36.0755 37.9272 35.0974 39.7751C34.1914 41.5509 32.9957 42.6739 30.532 43.906L25.3503 41.4421C27.8144 40.2827 29.0101 39.2683 29.7709 37.7097C30.5681 36.1157 30.822 34.2677 30.822 29.4126V18.3979H36.4017ZM27.525 9.78076V35.6087C24.6626 36.1521 22.5611 36.3694 20.2785 36.3694C13.4666 36.3694 9.91577 33.2899 9.91577 27.3837C9.91577 21.695 13.6841 17.9995 19.5173 17.9995C20.4232 17.9995 21.1117 18.0718 21.9451 18.2892V9.78115H27.5251L27.525 9.78076ZM20.0611 22.4921C17.2349 22.4921 15.6042 24.2313 15.6042 27.2747C15.6042 30.2462 17.1625 31.8765 20.025 31.8765C20.6406 31.8765 21.148 31.8403 21.9451 31.7319V22.7817C21.2929 22.5646 20.7496 22.4921 20.0611 22.4921ZM36.4017 9.81045V15.5354H30.822V9.81064H36.4017V9.81045Z" fill="#FFFFFD"/>
</g>
<defs>
<clipPath id="clip0_217_210">
<rect width="50" height="50" fill="white"/>
</clipPath>
</defs>
</svg>
