<svg viewBox="0 0 70 50" fill="none" xmlns="http://www.w3.org/2000/svg">
<g clip-path="url(#clip0_217_165)">
<path d="M67.7613 19.0532C66.2031 17.9722 62.6326 17.5668 59.8413 18.1073C59.5169 15.4046 58.0237 13.04 55.4269 10.9454L53.934 9.86432L52.895 11.4184C51.5969 13.4454 50.9477 16.2832 51.1423 18.9859C51.2072 19.9316 51.5318 21.6208 52.5056 23.1073C51.5969 23.6478 49.7142 24.3235 47.2475 24.3235H0.312333L0.182603 24.8641C-0.271992 27.5665 -0.271992 36.0122 5.05125 42.4984C9.07612 47.4305 15.0485 49.9305 22.9034 49.9305C39.9115 49.9305 52.5056 41.7549 58.4131 26.9584C60.7502 27.0259 65.7488 26.9584 68.2807 21.8908C68.3456 21.7557 68.4753 21.4854 68.9296 20.4722L69.1894 19.9316L67.7613 19.0532ZM37.8342 0H30.6937V6.75649H37.8342V0ZM37.8342 8.10784H30.6937V14.8643H37.8342V8.10757V8.10784ZM29.395 8.10784H22.2545V14.8643H29.395V8.10757V8.10784ZM20.9558 8.10784H13.815V14.8643H20.9558V8.10757V8.10784ZM12.5167 16.2157H5.37585V22.9722H12.5164V16.2154L12.5167 16.2157ZM20.9558 16.2157H13.815V22.9722H20.9558V16.2154V16.2157ZM29.395 16.2157H22.2545V22.9722H29.395V16.2154V16.2157ZM37.8345 16.2157H30.6934V22.9722H37.8345V16.2154V16.2157ZM46.2737 16.2157H39.1326V22.9722H46.2737V16.2154V16.2157Z" fill="#2396ED"/>
</g>
<defs>
<clipPath id="clip0_217_165">
<rect width="69.1892" height="50" fill="white"/>
</clipPath>
</defs>
</svg>
