<svg viewBox="0 0 34 50" fill="none" xmlns="http://www.w3.org/2000/svg">
<g clip-path="url(#clip0_217_201)">
<path d="M8.33333 50C12.9333 50 16.6667 46.2667 16.6667 41.6667V33.3334H8.33333C3.73333 33.3334 0 37.0667 0 41.6667C0 46.2667 3.73333 50 8.33333 50Z" fill="#0ACF83"/>
<path d="M0 25C0 20.4 3.73333 16.6666 8.33333 16.6666H16.6667V33.3333H8.33333C3.73333 33.3333 0 29.6 0 25Z" fill="#A259FF"/>
<path d="M0 8.33333C0 3.73333 3.73333 0 8.33333 0H16.6667V16.6667H8.33333C3.73333 16.6667 0 12.9333 0 8.33333Z" fill="#F24E1E"/>
<path d="M16.6666 0H25C29.6 0 33.3333 3.73333 33.3333 8.33333C33.3333 12.9333 29.6 16.6667 25 16.6667H16.6666V0Z" fill="#FF7262"/>
<path d="M33.3333 25C33.3333 29.6 29.6 33.3333 25 33.3333C20.4 33.3333 16.6666 29.6 16.6666 25C16.6666 20.4 20.4 16.6666 25 16.6666C29.6 16.6666 33.3333 20.4 33.3333 25Z" fill="#1ABCFE"/>
</g>
<defs>
<clipPath id="clip0_217_201">
<rect width="33.3333" height="50" fill="white"/>
</clipPath>
</defs>
</svg>
