<svg viewBox="0 0 36 50" fill="none" xmlns="http://www.w3.org/2000/svg">
<g clip-path="url(#clip0_217_189)">
<path d="M35.3954 9.80139L32.1765 45.8623L17.7069 49.8737L3.2773 45.8679L0.0616455 9.80139H35.3954Z" fill="#E44D26"/>
<path d="M17.7285 46.8075L29.4206 43.5661L32.1713 12.7503H17.7285V46.8075Z" fill="#F16529"/>
<path d="M11.4709 21.5972H17.7285V17.1738H6.63672L6.74254 18.3605L7.82979 30.5503H17.7285V26.1269H11.8752L11.4709 21.5972ZM12.4679 32.7621H8.02744L8.64711 39.7075L17.7082 42.2227L17.7285 42.2172V37.615L17.7092 37.6201L12.7828 36.2899L12.4679 32.7621Z" fill="#EBEBEB"/>
<path d="M3.349 0H5.59692V2.22091H7.65329V0H9.90135V6.72548H7.65343V4.47341H5.59706V6.72548H3.34914V0H3.349ZM12.8573 2.23033H10.8786V0H17.0856V2.23033H15.1056V6.72548H12.8577V2.23033H12.8576H12.8573ZM18.0706 0H20.4145L21.8563 2.36316L23.2968 0H25.6417V6.72548H23.4029V3.39197L21.8563 5.78324H21.8176L20.2701 3.39197V6.72548H18.0706V0ZM26.7604 0H29.009V4.50249H32.1702V6.72548H26.7602V0H26.7604Z" fill="black"/>
<path d="M17.7133 30.5503H23.1602L22.6467 36.2871L17.7131 37.6187V42.2206L26.7814 39.7075L26.8479 38.9601L27.8875 27.3147L27.9954 26.1269H17.7133V30.5503ZM17.7133 21.5864V21.5972H28.3979L28.4865 20.6031L28.6882 18.3605L28.7939 17.1738H17.7133V21.5866V21.5864Z" fill="white"/>
</g>
<defs>
<clipPath id="clip0_217_189">
<rect width="35.4571" height="50" fill="white"/>
</clipPath>
</defs>
</svg>
