<svg viewBox="0 0 50 50" fill="none" xmlns="http://www.w3.org/2000/svg">
<g clip-path="url(#clip0_217_170)">
<path d="M0 0H50V50H0V0Z" fill="#F7DF1E"/>
<path d="M13.1469 41.7836L16.9731 39.468C17.7114 40.7768 18.3829 41.8842 19.9936 41.8842C21.5375 41.8842 22.5112 41.2803 22.5112 38.9311V22.9549H27.2098V38.9975C27.2098 43.8641 24.3571 46.0793 20.195 46.0793C16.4362 46.0793 14.2543 44.1326 13.1467 41.7832M29.762 41.2801L33.5877 39.0651C34.595 40.7098 35.904 41.918 38.2196 41.918C40.1667 41.918 41.4081 40.9446 41.4081 39.602C41.4081 37.991 40.1327 37.4203 37.9846 36.4809L36.8102 35.977C33.4202 34.5342 31.1715 32.7217 31.1715 28.8955C31.1715 25.3713 33.8565 22.6862 38.052 22.6862C41.0391 22.6862 43.1872 23.7268 44.7309 26.4453L41.0723 28.7949C40.2667 27.3518 39.3944 26.7813 38.0518 26.7813C36.6756 26.7813 35.803 27.6539 35.803 28.7949C35.803 30.2045 36.6756 30.7754 38.6893 31.6481L39.8639 32.1514C43.8581 33.8633 46.1067 35.6084 46.1067 39.535C46.1067 43.7643 42.784 46.0799 38.3202 46.0799C33.9571 46.0799 31.1377 43.999 29.7618 41.2803" fill="black"/>
</g>
<defs>
<clipPath id="clip0_217_170">
<rect width="50" height="50" fill="white"/>
</clipPath>
</defs>
</svg>
