<svg viewBox="0 0 58 50" fill="none" xmlns="http://www.w3.org/2000/svg">
<g clip-path="url(#clip0_218_281)">
<path d="M48.5971 34.0331C48.8407 33.8932 49.0432 33.6917 49.1843 33.4488C49.3255 33.2059 49.4002 32.9302 49.4011 32.6493L49.43 23.3806C49.4308 23.0996 49.5056 22.8239 49.6467 22.5809C49.7878 22.338 49.9904 22.1365 50.234 21.9966L55.2583 19.1105C55.5018 18.9707 55.7778 18.8973 56.0587 18.8977C56.3395 18.8982 56.6152 18.9725 56.8583 19.1131C57.1013 19.2538 57.3031 19.4559 57.4434 19.6991C57.5837 19.9424 57.6576 20.2182 57.6577 20.4991V37.35C57.6577 37.6317 57.5833 37.9085 57.4421 38.1523C57.301 38.3961 57.0979 38.5984 56.8536 38.7387L37.8919 49.6299C37.6497 49.769 37.3753 49.8423 37.0959 49.8426C36.8166 49.8429 36.5421 49.7701 36.2995 49.6315L21.4189 41.1202C21.1738 40.9802 20.97 40.778 20.8282 40.5338C20.6864 40.2897 20.6116 40.0125 20.6115 39.7301V31.2333C20.6115 31.2238 20.6227 31.2175 20.6324 31.222C20.6403 31.227 20.6516 31.222 20.6516 31.2108V31.2013C20.6516 31.195 20.6547 31.1885 20.6613 31.1853L32.9171 24.1446C32.9284 24.138 32.9234 24.1205 32.9106 24.1205C32.9072 24.1205 32.9039 24.1191 32.9015 24.1167C32.8991 24.1143 32.8977 24.111 32.8977 24.1076L32.9218 15.7774C32.923 15.4957 32.8498 15.2187 32.7097 14.9743C32.5696 14.7299 32.3675 14.5268 32.1238 14.3855C31.8802 14.2442 31.6035 14.1696 31.3218 14.1693C31.0401 14.1691 30.7633 14.2431 30.5194 14.384L21.4108 19.6328C21.1677 19.7728 20.8921 19.8465 20.6116 19.8465C20.3311 19.8465 20.0555 19.7728 19.8124 19.6328L10.675 14.3716C10.4316 14.2314 10.1556 14.1577 9.87464 14.1579C9.59372 14.158 9.3178 14.2321 9.07455 14.3726C8.83131 14.5131 8.6293 14.7152 8.4888 14.9584C8.3483 15.2017 8.27426 15.4776 8.2741 15.7585V30.8139C8.27431 31.0945 8.20079 31.3703 8.0609 31.6135C7.92102 31.8568 7.71967 32.059 7.47703 32.2C7.2344 32.3409 6.95898 32.4157 6.67838 32.4167C6.39777 32.4177 6.12182 32.345 5.87816 32.2058L0.807209 29.3063C0.561659 29.166 0.357623 28.9632 0.215842 28.7186C0.0740614 28.4739 -0.000408802 28.196 1.68786e-06 27.9133L0.0450467 1.59794C0.0457652 1.31749 0.120112 1.04215 0.260649 0.799457C0.401186 0.556765 0.602987 0.35523 0.845865 0.215013C1.08874 0.0747955 1.36418 0.00081212 1.64463 0.000463507C1.92507 0.000114894 2.2007 0.0734132 2.44392 0.213026L19.814 10.1892C20.0567 10.3286 20.3317 10.4019 20.6116 10.4019C20.8915 10.4019 21.1665 10.3286 21.4092 10.1892L38.7741 0.212576C39.0177 0.0726335 39.2939 -0.000761414 39.5748 -0.000241396C39.8558 0.000278621 40.1316 0.0746953 40.3747 0.215538C40.6178 0.356382 40.8196 0.558695 40.9598 0.80217C41.1 1.04565 41.1737 1.32171 41.1734 1.60267V27.9241C41.1736 28.2056 41.0995 28.4823 40.9587 28.7261C40.8178 28.9699 40.6152 29.1723 40.3712 29.3128L31.277 34.5502C31.0327 34.691 30.83 34.8938 30.6892 35.1381C30.5484 35.3823 30.4746 35.6595 30.4752 35.9414C30.4758 36.2234 30.5509 36.5002 30.6928 36.7438C30.8347 36.9875 31.0384 37.1893 31.2833 37.329L36.2998 40.1849C36.5422 40.3228 36.8164 40.3951 37.0954 40.3945C37.3743 40.3939 37.6483 40.3205 37.8901 40.1815L48.5973 34.0328L48.5971 34.0331ZM49.6493 10.4216C49.6495 10.7048 49.7249 10.983 49.8676 11.2276C50.0104 11.4723 50.2155 11.6747 50.462 11.8142C50.7085 11.9538 50.9876 12.0254 51.2709 12.0219C51.5541 12.0183 51.8314 11.9397 52.0743 11.7941L56.8793 8.91122C57.1165 8.7691 57.3128 8.56799 57.4492 8.32747C57.5856 8.08695 57.6574 7.81521 57.6577 7.5387V1.6637C57.6572 1.38057 57.5816 1.10263 57.4388 0.8582C57.2959 0.613768 57.0907 0.411582 56.8443 0.272243C56.5978 0.132904 56.3188 0.0613932 56.0357 0.0649966C55.7526 0.0686001 55.4755 0.147189 55.2327 0.292756L50.4279 3.17564C50.1907 3.31775 49.9943 3.51889 49.8578 3.75945C49.7214 4.00002 49.6495 4.27182 49.6493 4.54839V10.4232V10.4216Z" fill="#007FFF"/>
</g>
<defs>
<clipPath id="clip0_218_281">
<rect width="57.6577" height="50" fill="white"/>
</clipPath>
</defs>
</svg>
