<svg viewBox="0 0 44 50" fill="none" xmlns="http://www.w3.org/2000/svg">
<g clip-path="url(#clip0_218_344)">
<path d="M0.352921 37.4891C0.579725 37.8924 0.907388 38.1949 1.31082 38.4217L20.7201 49.6137C21.5268 50.0925 22.5098 50.0925 23.2912 49.6137L42.7007 38.4217C43.5074 37.9681 43.9863 37.1109 43.9863 36.1783V13.7944C43.9863 12.8618 43.5074 12.0047 42.7007 11.5511L23.2912 0.359034C22.4847 -0.120004 21.5015 -0.120004 20.7201 0.359034L1.311 11.5511C0.478866 12.0047 0 12.8618 0 13.7944V36.2034C0 36.6573 0.100859 37.0858 0.352921 37.4891Z" fill="#009639"/>
<path d="M15.7796 33.5316C15.781 33.8597 15.7174 34.1849 15.5925 34.4883C15.4676 34.7917 15.2838 35.0673 15.0518 35.2993C14.8198 35.5313 14.5441 35.7151 14.2407 35.84C13.9373 35.9649 13.6122 36.0285 13.2841 36.0272C12.956 36.0285 12.6309 35.9649 12.3275 35.84C12.0241 35.715 11.7485 35.5313 11.5165 35.2993C11.2845 35.0673 11.1007 34.7916 10.9758 34.4882C10.8509 34.1848 10.7873 33.8597 10.7887 33.5316V16.4162C10.7887 15.0801 11.9734 13.9962 13.6117 13.9962C14.7966 13.9962 16.183 14.4751 17.0148 15.5086L17.7708 16.4162L28.2068 28.8935V16.4665C28.2054 16.1384 28.269 15.8133 28.3939 15.5099C28.5188 15.2065 28.7026 14.9308 28.9346 14.6988C29.1666 14.4668 29.4423 14.283 29.7457 14.1581C30.0491 14.0332 30.3742 13.9696 30.7023 13.971C31.0304 13.9696 31.3555 14.0332 31.6589 14.1582C31.9623 14.2831 32.2379 14.4669 32.4699 14.6989C32.7019 14.9309 32.8856 15.2065 33.0105 15.5099C33.1354 15.8133 33.199 16.1384 33.1977 16.4665V33.5821C33.1977 34.918 32.0129 36.0019 30.3746 36.0019C29.1897 36.0019 27.8033 35.523 26.9715 34.4895L15.7796 21.1297V33.5318V33.5316Z" fill="white"/>
</g>
<defs>
<clipPath id="clip0_218_344">
<rect width="43.9863" height="50" fill="white"/>
</clipPath>
</defs>
</svg>
