<svg viewBox="0 0 50 50" fill="none" xmlns="http://www.w3.org/2000/svg">
<g clip-path="url(#clip0_217_213)">
<path d="M49.8063 29.9406C49.5065 29.0601 48.7211 28.4468 47.7055 28.2997C47.2266 28.2304 46.6782 28.2599 46.0291 28.3896C44.8979 28.616 44.0586 28.7021 43.4461 28.7188C45.7581 24.9338 47.6379 20.6175 48.7202 16.5544C50.4702 9.98453 49.535 6.99154 48.4422 5.63775C45.5502 2.05442 41.3309 0.129419 36.2407 0.0705179C33.5252 0.0383209 31.1415 0.558207 29.8979 0.932071C28.7401 0.733965 27.4952 0.623359 26.1889 0.602904C23.7403 0.565025 21.5768 1.08264 19.7282 2.14646C18.7047 1.81086 17.0622 1.33775 15.1653 1.03586C10.704 0.325631 7.10825 0.879041 4.47817 2.68074C1.29341 4.86218 -0.182959 8.65234 0.0900877 13.9459C0.176806 15.6266 1.14634 20.7402 2.6729 25.5898C3.55024 28.3773 4.48579 30.6921 5.45356 32.4705C6.82603 34.9923 8.29458 36.4773 9.94321 37.0107C10.8672 37.3092 12.5461 37.5182 14.312 36.0921C14.5358 36.355 14.8344 36.6162 15.2307 36.8588C15.734 37.1665 16.3495 37.4181 16.9641 37.5671C19.1791 38.104 21.254 37.9698 23.0241 37.2171C23.035 37.5224 23.0434 37.8141 23.0504 38.066C23.0622 38.4745 23.0739 38.8751 23.0893 39.2497C23.1942 41.7826 23.3719 43.7521 23.8985 45.1302C23.9274 45.2059 23.9663 45.3215 24.0073 45.444C24.27 46.2239 24.7092 47.5296 25.8268 48.5521C26.984 49.6114 28.3838 49.9362 29.6659 49.9362C30.3088 49.9362 30.9223 49.8544 31.4604 49.7427C33.3784 49.344 35.5567 48.7368 37.1325 46.561C38.6223 44.5042 39.3465 41.4063 39.4776 36.5251C39.4946 36.387 39.5102 36.2552 39.5252 36.1296L39.5565 35.8717L39.9075 35.9016L39.9979 35.9074C41.9514 35.9938 44.3401 35.5921 45.8071 34.9313C46.9663 34.4097 50.6809 32.508 49.8063 29.9406Z" fill="black"/>
<path d="M46.466 30.4398C40.6574 31.6017 40.258 29.6947 40.258 29.6947C46.3908 20.8702 48.9547 9.66892 46.7424 6.92744C40.7064 -0.550779 30.2582 2.98596 30.0838 3.07763L30.0277 3.08748C28.8801 2.85642 27.5959 2.71892 26.1523 2.696C23.5242 2.65433 21.5305 3.36418 20.0176 4.47668C20.0176 4.47668 1.3789 -2.96915 2.24589 13.8411C2.43026 17.4172 7.53183 40.9004 13.6166 33.8074C15.8406 31.2136 17.9896 29.0206 17.9896 29.0206C19.0568 29.7081 20.3346 30.0589 21.674 29.9329L21.7781 29.8473C21.7457 30.1693 21.7605 30.4843 21.8197 30.8572C20.2521 32.5555 20.7129 32.8536 17.5793 33.4791C14.4084 34.1129 16.2711 35.2409 17.4873 35.536C18.9617 35.8934 22.3726 36.3998 24.6773 33.2712L24.5855 33.6282C25.1996 34.1053 25.6308 36.731 25.5586 39.1115C25.4863 41.4918 25.4381 43.1261 25.9219 44.4026C26.406 45.6791 26.8883 48.5513 31.0078 47.6954C34.4498 46.9801 36.2336 45.1265 36.4818 42.0345C36.6578 39.8363 37.0564 40.1613 37.0814 38.196L37.4012 37.2657C37.7697 34.286 37.4598 33.3246 39.5803 33.7718L40.0959 33.8157C41.6564 33.8844 43.6994 33.5721 44.8984 33.0318C47.4801 31.8701 49.0113 29.9301 46.4656 30.4398H46.466Z" fill="#336791"/>
<path d="M21.1085 15.4403C20.5851 15.3696 20.1111 15.435 19.8712 15.6111C19.7365 15.7102 19.6947 15.8249 19.6833 15.9039C19.6533 16.1132 19.8044 16.3446 19.8974 16.464C20.1603 16.8018 20.5443 17.034 20.9244 17.0852C20.9794 17.0927 21.0343 17.0961 21.0888 17.0961C21.7226 17.0961 22.299 16.6175 22.3497 16.2643C22.4132 15.8219 21.7509 15.527 21.1085 15.4405M38.4492 15.4543C38.3992 15.1075 37.7628 15.0086 37.1589 15.0901C36.5558 15.1715 35.971 15.4355 36.0199 15.7831C36.0589 16.0533 36.5622 16.5147 37.1579 16.5147C37.2083 16.5147 37.2591 16.5115 37.3103 16.5045C37.7079 16.4511 37.9997 16.2062 38.1384 16.0651C38.3494 15.8499 38.4716 15.6102 38.4492 15.4543Z" fill="white"/>
<path d="M48.3988 30.3077C48.1773 29.6583 47.4644 29.4494 46.2801 29.6865C42.7635 30.3903 41.5041 29.9028 41.0906 29.6075C43.824 25.5697 46.0726 20.6886 47.2857 16.1346C47.8603 13.9774 48.1777 11.974 48.2037 10.3411C48.2324 8.54884 47.9176 7.23179 47.2683 6.42725C44.6508 3.18388 40.809 1.4441 36.1586 1.39638C32.9615 1.36153 30.2603 2.1549 29.7367 2.37801C28.634 2.1121 27.4318 1.94884 26.123 1.92801C23.723 1.89032 21.6484 2.44751 19.9308 3.58331C19.1848 3.31399 17.2566 2.67213 14.8986 2.30376C10.8221 1.6674 7.58261 2.1496 5.27089 3.73766C2.51249 5.63274 1.23905 9.02024 1.48573 13.8058C1.56874 15.4159 2.51483 20.3689 4.0078 25.1123C5.97303 31.3555 8.10936 34.8897 10.357 35.6168C10.6201 35.7019 10.9234 35.7613 11.258 35.7613C12.0779 35.7613 13.0832 35.403 14.1291 34.1837C15.4048 32.6997 16.7244 31.2517 18.0863 29.8416C18.9699 30.3015 19.9406 30.5583 20.9334 30.5841C20.9353 30.6093 20.9379 30.6344 20.9402 30.6594C20.7693 30.8571 20.602 31.0575 20.4383 31.2608C19.7504 32.1076 19.6072 32.2839 17.393 32.7259C16.7631 32.8521 15.0902 33.1863 15.0656 34.3235C15.0391 35.5659 17.0432 36.0877 17.2715 36.143C18.0672 36.3362 18.8338 36.4314 19.5648 36.4314C21.3428 36.4314 22.9074 35.8647 24.1578 34.7683C24.1193 39.1975 24.3098 43.5619 24.8582 44.8916C25.3074 45.9803 26.4047 48.6407 29.8707 48.6405C30.3793 48.6405 30.9391 48.5831 31.5549 48.4551C35.1723 47.7032 36.7431 46.1528 37.3508 42.7348C37.676 40.9081 38.234 36.5462 38.4965 34.2064C39.0504 34.374 39.7635 34.4507 40.5344 34.4505C42.1422 34.4505 43.9974 34.1193 45.1609 33.5956C46.468 33.007 48.8265 31.5627 48.3988 30.3077ZM39.7844 14.4971C39.7724 15.1879 39.6744 15.8149 39.5705 16.4695C39.4586 17.1735 39.343 17.9013 39.3139 18.7848C39.2851 19.6447 39.3959 20.5386 39.5029 21.4032C39.7193 23.1494 39.9414 24.9471 39.0818 26.721C38.939 26.4757 38.8118 26.2221 38.701 25.9617C38.5941 25.7106 38.3621 25.3072 38.0408 24.7488C36.791 22.5754 33.8642 17.4856 35.3625 15.4087C35.8088 14.7905 36.9414 14.1549 39.7844 14.4971ZM36.3383 2.79505C40.5051 2.88426 43.8012 4.39581 46.1348 7.28748C47.9246 9.50547 45.9537 19.5977 40.248 28.3043C40.1907 28.2336 40.133 28.1631 40.075 28.0928L40.0027 28.0053C41.4771 25.6441 41.1889 23.3079 40.9322 21.2367C40.8267 20.3867 40.7271 19.5839 40.7525 18.8297C40.7787 18.0305 40.8877 17.3449 40.9932 16.682C41.1226 15.8651 41.2545 15.0199 41.2182 14.0235C41.2453 13.9189 41.2562 13.7954 41.242 13.6488C41.1492 12.6933 40.0242 9.83369 37.7312 7.24543C36.4769 5.82971 34.6478 4.24543 32.1504 3.17687C33.2246 2.96096 34.6935 2.75963 36.3383 2.79505ZM13.0223 33.2913C11.8699 34.6348 11.0742 34.3772 10.8125 34.2928C9.10741 33.7413 7.12889 30.2466 5.38456 24.7049C3.87518 19.9098 2.99315 15.088 2.92323 13.736C2.70292 9.45982 3.77186 6.47971 6.10057 4.8782C9.89042 2.27213 16.1213 3.83198 18.625 4.62308C18.5891 4.65755 18.5516 4.68975 18.516 4.72479C14.4074 8.74827 14.5049 15.6225 14.515 16.0428C14.5146 16.2049 14.5287 16.4344 14.5478 16.7502C14.6185 17.9064 14.7502 20.0583 14.3986 22.4952C14.0721 24.7598 14.792 26.9763 16.3734 28.5765C16.5357 28.7404 16.7063 28.8964 16.8846 29.0439C16.1807 29.775 14.6508 31.3916 13.0223 33.2913ZM17.4127 27.6108C16.1381 26.321 15.5592 24.5271 15.8242 22.6884C16.1953 20.1142 16.0584 17.8721 15.9848 16.6676C15.9744 16.499 15.9652 16.3513 15.9599 16.2348C16.5601 15.7187 19.3416 14.2736 21.3252 14.7144C22.2303 14.9153 22.7818 15.513 23.0111 16.5411C24.1978 21.8636 23.1682 24.082 22.3408 25.8647C22.1703 26.232 22.0092 26.5791 21.8717 26.9382L21.765 27.2159C21.4951 27.9178 21.2439 28.5704 21.0883 29.1901C19.7332 29.1863 18.415 28.625 17.4127 27.6106V27.6108ZM17.6207 34.7888C17.225 34.693 16.8691 34.5265 16.6603 34.3884C16.8348 34.3089 17.1451 34.2005 17.6834 34.093C20.2883 33.5731 20.6906 33.206 21.5691 32.1244C21.7705 31.8763 21.9988 31.5952 22.315 31.2528L22.3154 31.2524C22.7863 30.7411 23.0017 30.8278 23.3924 30.985C23.709 31.1119 24.0174 31.4968 24.1424 31.9202C24.2016 32.1202 24.268 32.4998 24.0506 32.7952C22.2154 35.2869 19.5412 35.2549 17.6207 34.7888ZM31.2533 47.0903C28.0666 47.7524 26.9383 46.1757 26.1947 44.3733C25.7148 43.2096 25.4789 37.9623 25.6463 32.1674C25.6484 32.0903 25.6371 32.0159 25.6152 31.9458C25.5957 31.8074 25.5659 31.6706 25.5262 31.5363C25.2773 30.6932 24.6709 29.9879 23.9433 29.6954C23.6543 29.5793 23.1238 29.3663 22.4863 29.5244C22.6223 28.9812 22.858 28.3678 23.1137 27.7036L23.2209 27.4242C23.3416 27.1093 23.4932 26.7829 23.6533 26.4375C24.5191 24.5723 25.7049 22.0176 24.418 16.2462C23.9359 14.0844 22.3262 13.0288 19.8859 13.274C18.423 13.4208 17.0846 13.9932 16.417 14.3214C16.2734 14.3918 16.1422 14.46 16.0195 14.5263C16.2058 12.3483 16.9098 8.27782 19.543 5.70244C21.201 4.08123 23.409 3.28047 26.0992 3.32365C31.4 3.40774 34.7992 6.04562 36.7176 8.24391C38.3707 10.138 39.2658 12.0462 39.623 13.0754C36.9365 12.8104 35.1094 13.3246 34.1832 14.6087C32.1682 17.4019 35.2855 22.8231 36.7838 25.4286C37.0586 25.906 37.2957 26.3187 37.3703 26.4941C37.8582 27.6407 38.4898 28.4062 38.951 28.9649C39.0924 29.1361 39.2295 29.3022 39.3338 29.4473C38.5201 29.6748 37.0586 30.2004 37.1918 32.8274C37.0844 34.1456 36.3205 40.3172 35.9324 42.4977C35.4201 45.3784 34.3269 46.4513 31.2533 47.0905V47.0903ZM44.5549 32.3297C43.7228 32.7041 42.3305 32.985 41.0078 33.0454C39.5469 33.1117 38.8031 32.8867 38.6281 32.7483C38.5461 31.1111 39.1744 30.9401 39.8394 30.7591C39.9439 30.7307 40.0459 30.7028 40.1443 30.6695C40.2055 30.7178 40.2724 30.7657 40.3459 30.8127C41.5201 31.5642 43.6144 31.6452 46.5713 31.0534L46.6037 31.0471C46.2049 31.4087 45.5224 31.8939 44.5549 32.3297Z" fill="white"/>
</g>
<defs>
<clipPath id="clip0_217_213">
<rect width="50" height="50" fill="white"/>
</clipPath>
</defs>
</svg>
