<svg viewBox="0 0 51 50" fill="none" xmlns="http://www.w3.org/2000/svg">
<g clip-path="url(#clip0_217_207)">
<path d="M24.8855 0.0141602C12.1733 0.0141602 12.9671 5.52691 12.9671 5.52691L12.9812 11.2383H25.1122V12.953H8.16295C8.16295 12.953 0.0284424 12.0304 0.0284424 24.8569C0.0284424 37.6838 7.12844 37.2289 7.12844 37.2289H11.3657V31.2767C11.3657 31.2767 11.1373 24.1767 18.3524 24.1767H30.3841C30.3841 24.1767 37.1439 24.2859 37.1439 17.6436V6.66083C37.1439 6.66083 38.1706 0.0141602 24.8855 0.0141602ZM18.1965 3.85494C18.4831 3.85469 18.767 3.91096 19.0319 4.02054C19.2968 4.13012 19.5375 4.29086 19.7402 4.49357C19.9429 4.69627 20.1037 4.93695 20.2132 5.20184C20.3228 5.46673 20.3791 5.75063 20.3788 6.0373C20.3791 6.32396 20.3228 6.60786 20.2132 6.87275C20.1037 7.13764 19.9429 7.37833 19.7402 7.58103C19.5375 7.78373 19.2968 7.94447 19.0319 8.05405C18.767 8.16364 18.4831 8.21991 18.1965 8.21965C17.9098 8.21991 17.6259 8.16364 17.361 8.05405C17.0961 7.94447 16.8555 7.78373 16.6528 7.58103C16.45 7.37833 16.2893 7.13764 16.1797 6.87275C16.0701 6.60786 16.0139 6.32396 16.0141 6.0373C16.0139 5.75063 16.0701 5.46673 16.1797 5.20184C16.2893 4.93695 16.45 4.69627 16.6528 4.49357C16.8555 4.29086 17.0961 4.13012 17.361 4.02054C17.6259 3.91096 17.9098 3.85469 18.1965 3.85494Z" fill="url(#paint0_linear_217_207)"/>
<path d="M25.2465 49.8285C37.9587 49.8285 37.1649 44.3158 37.1649 44.3158L37.1508 38.6046H25.0196V36.8899H41.9689C41.9689 36.8899 50.1034 37.8124 50.1034 24.9856C50.1034 12.1589 43.0034 12.6138 43.0034 12.6138H38.7661V18.5658C38.7661 18.5658 38.9945 25.6658 31.7794 25.6658H19.7477C19.7477 25.6658 12.9879 25.5566 12.9879 32.1991V43.182C12.9879 43.182 11.9614 49.8285 25.2463 49.8285H25.2465ZM31.9355 45.9881C31.6489 45.9884 31.365 45.9321 31.1001 45.8225C30.8352 45.7129 30.5945 45.5522 30.3918 45.3495C30.1891 45.1468 30.0283 44.9061 29.9188 44.6412C29.8092 44.3763 29.7529 44.0924 29.7532 43.8058C29.7529 43.5191 29.8091 43.2352 29.9187 42.9703C30.0283 42.7053 30.189 42.4646 30.3917 42.2619C30.5944 42.0592 30.8351 41.8984 31.1 41.7888C31.3649 41.6792 31.6488 41.623 31.9355 41.6232C32.2222 41.623 32.5061 41.6792 32.771 41.7888C33.0359 41.8984 33.2766 42.0591 33.4793 42.2618C33.682 42.4645 33.8427 42.7052 33.9523 42.9701C34.0619 43.235 34.1181 43.5189 34.1179 43.8056C34.1181 44.0922 34.0619 44.3761 33.9523 44.641C33.8427 44.9059 33.682 45.1466 33.4793 45.3493C33.2766 45.552 33.0359 45.7127 32.771 45.8223C32.5061 45.9319 32.2222 45.9882 31.9355 45.9879V45.9881Z" fill="url(#paint1_linear_217_207)"/>
</g>
<defs>
<linearGradient id="paint0_linear_217_207" x1="4.84062" y1="4.49468" x2="29.6562" y2="29.0627" gradientUnits="userSpaceOnUse">
<stop stop-color="#387EB8"/>
<stop offset="1" stop-color="#366994"/>
</linearGradient>
<linearGradient id="paint1_linear_217_207" x1="20.0725" y1="20.2706" x2="46.7215" y2="45.4629" gradientUnits="userSpaceOnUse">
<stop stop-color="#FFE052"/>
<stop offset="1" stop-color="#FFC331"/>
</linearGradient>
<clipPath id="clip0_217_207">
<rect width="50.1961" height="50" fill="white"/>
</clipPath>
</defs>
</svg>
