<svg viewBox="0 0 50 51" fill="none" xmlns="http://www.w3.org/2000/svg">
<g clip-path="url(#clip0_217_221)">
<path d="M41.11 16.7027C40.5778 16.4978 40.0412 16.3079 39.5006 16.1332C39.5914 15.7166 39.675 15.3049 39.7492 14.9005C40.9676 8.25998 40.1711 2.9102 37.4506 1.14879C34.8422 -0.539803 30.5764 1.22094 26.2682 5.43081C25.8436 5.84646 25.4284 6.27408 25.023 6.71327C24.7517 6.42122 24.4755 6.13484 24.1947 5.85428C19.6795 1.35296 15.1537 -0.544189 12.4361 1.22226C9.83008 2.91612 9.0584 7.94529 10.1553 14.2387C10.2644 14.862 10.3876 15.4821 10.5248 16.0984C9.88418 16.3027 9.26602 16.5203 8.67441 16.7519C3.38066 18.8242 0 22.0718 0 25.4405C0 28.9196 3.6293 32.4093 9.14297 34.5253C9.58997 34.6962 10.0407 34.8545 10.4947 35.0001C10.3473 35.6639 10.2164 36.3321 10.1021 37.0041C9.05645 43.1883 9.87305 48.0986 12.4721 49.7817C15.1564 51.5199 19.6619 49.7334 24.0488 45.4275C24.4046 45.0775 24.7525 44.7175 25.0922 44.3479C25.5312 44.8235 25.9819 45.2852 26.4438 45.7326C30.6934 49.8383 34.8902 51.4962 37.4867 49.8084C40.1686 48.0652 41.0402 42.7902 39.9086 36.3725C39.8194 35.8697 39.7195 35.3694 39.6088 34.872C39.9252 34.7668 40.2357 34.6584 40.5385 34.5457C46.2705 32.4135 50 28.9661 50 25.4405C50 22.0595 46.5102 18.79 41.11 16.7027ZM39.8668 32.2694C39.5934 32.3709 39.3129 32.469 39.027 32.5644C38.3941 30.315 37.5402 27.9234 36.4951 25.4521C37.4924 23.0398 38.3135 20.6786 38.9285 18.444C39.44 18.6102 39.9363 18.7854 40.4148 18.9703C45.0418 20.7589 47.8641 23.403 47.8641 25.4405C47.8641 27.6106 44.816 30.428 39.8668 32.2694ZM37.8133 36.8383C38.3137 39.676 38.385 42.2418 38.0535 44.2477C37.7559 46.0501 37.157 47.2517 36.4164 47.733C34.8408 48.7571 31.4711 47.426 27.8369 43.9146C27.4073 43.4987 26.9881 43.0694 26.5797 42.6273C27.9887 40.8973 29.3967 38.8861 30.7709 36.6523C33.1881 36.4115 35.4717 36.0177 37.5426 35.4802C37.6423 35.9304 37.7326 36.3832 37.8133 36.8383ZM17.0461 47.556C15.5066 48.1663 14.2805 48.1839 13.5393 47.7041C11.9621 46.6828 11.3064 42.74 12.2008 37.4514C12.3071 36.8265 12.4288 36.205 12.5658 35.5876C14.6139 36.0964 16.8809 36.4622 19.3037 36.6828C20.6873 38.8685 22.1359 40.8775 23.5959 42.6367C23.2856 42.9738 22.968 43.3023 22.6434 43.6218C20.7033 45.5258 18.7594 46.8766 17.0461 47.556ZM9.83398 32.256C7.3959 31.3203 5.38242 30.1043 4.00234 28.7773C2.76211 27.585 2.13613 26.401 2.13613 25.4405C2.13613 23.3962 4.85039 20.7887 9.37754 19.0166C9.92695 18.8016 10.502 18.5988 11.0986 18.4084C11.7244 20.6935 12.5451 23.0828 13.5355 25.4988C12.5322 27.9506 11.6998 30.378 11.068 32.69C10.6535 32.5567 10.2421 32.412 9.83398 32.256ZM12.2516 13.778C11.3119 8.38607 11.9359 4.31875 13.5064 3.29792C15.1791 2.21064 18.8779 3.76086 22.7766 7.6477C23.0308 7.90173 23.2809 8.16091 23.5268 8.42511C22.074 10.1766 20.6387 12.1707 19.2674 14.3435C16.9158 14.5883 14.6648 14.9813 12.5953 15.5078C12.4678 14.9346 12.3532 14.3579 12.2516 13.7782V13.778ZM33.8193 19.7578C33.3305 18.8097 32.8236 17.8736 32.2988 16.9501C33.8941 17.1766 35.4227 17.4773 36.858 17.8448C36.4271 19.3957 35.89 21.017 35.2578 22.6793C34.7957 21.6948 34.3161 20.7208 33.8193 19.7578ZM25.024 10.1391C26.0092 11.3376 26.9959 12.6755 27.9664 14.1273C25.9977 14.0229 24.0256 14.0225 22.0568 14.126C23.0283 12.6876 24.0234 11.3514 25.024 10.1391ZM16.1723 19.7742C15.6817 20.7295 15.2111 21.6974 14.7607 22.6773C14.1389 21.0209 13.6066 19.3922 13.1721 17.8194C14.5986 17.4611 16.1199 17.1681 17.7051 16.9457C17.1745 17.8749 16.6634 18.8179 16.1723 19.774V19.7742ZM17.7506 34.1058C16.1129 33.9006 14.5688 33.6227 13.1426 33.274C13.584 31.6731 14.1279 30.0098 14.7633 28.3179C15.2154 29.2985 15.688 30.267 16.1807 31.2227C16.6873 32.2052 17.2119 33.1674 17.7506 34.1058ZM25.083 40.9106C24.0705 39.6843 23.0607 38.3275 22.0746 36.8683C23.032 36.9104 24.008 36.9319 25 36.9319C26.0191 36.9319 27.0266 36.9063 28.0182 36.8567C27.0445 38.3422 26.0615 39.701 25.083 40.9106ZM35.2779 28.2315C35.9463 29.942 36.5096 31.5966 36.9568 33.1701C35.5072 33.5416 33.942 33.8407 32.2928 34.0628C32.8212 33.1222 33.333 32.1698 33.8277 31.2063C34.3307 30.2269 34.8143 29.235 35.2779 28.2315ZM31.9775 30.008C31.2202 31.4853 30.4202 32.9345 29.5789 34.3534C28.055 34.4746 26.5277 34.5348 25 34.5339C23.4439 34.5339 21.9305 34.4795 20.473 34.3734C19.6098 32.9577 18.7946 31.506 18.0291 30.0212H18.0293C17.2674 28.5442 16.5558 27.0353 15.8959 25.4977C16.5541 23.9597 17.2636 22.4501 18.0229 20.972L18.0227 20.9723C18.7816 19.4938 19.5904 18.0482 20.4471 16.6387C21.934 16.5124 23.4588 16.4466 24.9998 16.4466H25C26.548 16.4466 28.0748 16.513 29.5613 16.6402C30.4094 18.0477 31.2129 19.4883 31.9705 20.9593C32.7323 22.4341 33.4512 23.9364 34.126 25.4637C33.4581 27.0066 32.7415 28.5224 31.9775 30.008ZM36.3838 3.22643C38.058 4.31064 38.7092 8.68279 37.6572 14.4163C37.59 14.7821 37.5146 15.1547 37.4326 15.5326C35.358 14.9948 33.1055 14.5951 30.7471 14.3466C29.3732 12.1499 27.9496 10.1527 26.5205 8.42379C26.895 8.01842 27.2785 7.62357 27.6705 7.23958C31.3619 3.63279 34.8119 2.20866 36.3838 3.22643ZM25 20.4273C27.4658 20.4273 29.4648 22.6718 29.4648 25.4405C29.4648 28.2091 27.4658 30.4536 25 30.4536C22.5342 30.4536 20.5352 28.2091 20.5352 25.4405C20.5352 22.6718 22.5342 20.4273 25 20.4273Z" fill="#00D8FF"/>
</g>
<defs>
<clipPath id="clip0_217_221">
<rect width="50" height="50" fill="white" transform="translate(0 0.513184)"/>
</clipPath>
</defs>
</svg>
