<svg viewBox="0 0 90 22" fill="none" xmlns="http://www.w3.org/2000/svg">
<g clip-path="url(#clip0_217_187)">
<path d="M1.38128e-08 11.3303C0.0217969 16.789 4.46643 21.2585 9.9283 21.2585C15.4074 21.2518 19.848 16.8128 19.8566 11.3333V9.92531C19.8728 6.77355 23.2949 4.8215 26.0162 6.41162C26.4348 6.65625 26.8066 6.97323 27.1144 7.34783H33.5348C32.3619 3.01535 28.433 0.00527344 23.9446 0C18.4653 0.00878906 14.0261 4.44937 14.0194 9.9283V11.3303C14.0159 13.5891 12.1838 15.4181 9.92514 15.4181C7.66881 15.4148 5.84068 13.5867 5.83734 11.3303C5.83737 11.1767 5.80713 11.0247 5.74837 10.8828C5.68961 10.7409 5.60346 10.6119 5.49486 10.5033C5.38626 10.3947 5.25733 10.3086 5.11544 10.2498C4.97354 10.1911 4.82146 10.1608 4.66787 10.1609H1.16631C0.856679 10.1617 0.560005 10.2852 0.34136 10.5045C0.122715 10.7237 -4.75442e-05 11.0207 1.38128e-08 11.3303H1.38128e-08ZM37.992 21.2585C33.5085 21.2418 29.5879 18.2338 28.411 13.9076H34.8219C36.7956 16.3528 40.6758 15.7446 41.8062 12.8129C41.9883 12.3409 42.081 11.8392 42.0797 11.3333V9.92531C42.0882 4.44604 46.5288 0.00667969 52.008 0C57.4142 0 61.8217 4.34232 61.9334 9.71736L61.9643 11.3303C61.9805 14.4821 65.4026 16.434 68.1238 14.8442C68.5425 14.5995 68.9143 14.2823 69.2221 13.9076H75.6425C74.4711 18.2403 70.5435 21.2521 66.0554 21.2586C60.5934 21.2586 56.1488 16.7861 56.1271 11.3333L56.096 9.87557V9.81352C56.0306 7.60236 54.2203 5.84279 52.008 5.84033C49.7517 5.84385 47.9236 7.67215 47.9203 9.9283V11.3303C47.9132 16.8108 43.4721 21.2518 37.992 21.2585ZM76.9018 7.35082C78.8753 4.90623 82.7555 5.51443 83.8862 8.44594C84.0685 8.91881 84.1612 9.42149 84.1597 9.9283C84.1596 10.0819 84.1899 10.2339 84.2486 10.3758C84.3074 10.5177 84.3935 10.6466 84.5021 10.7552C84.6107 10.8638 84.7396 10.9499 84.8815 11.0086C85.0233 11.0674 85.1754 11.0976 85.329 11.0976H88.8339C89.1435 11.0969 89.4401 10.9733 89.6587 10.7541C89.8774 10.5349 90.0001 10.2379 90 9.9283C89.9931 4.44797 85.552 0.00703125 80.0717 0C75.5822 0.005625 71.653 3.01729 70.4814 7.35082H76.9018Z" fill="black"/>
</g>
<defs>
<clipPath id="clip0_217_187">
<rect width="90" height="21.2695" fill="white"/>
</clipPath>
</defs>
</svg>
