<svg viewBox="0 0 50 31" fill="none" xmlns="http://www.w3.org/2000/svg">
<path d="M25 0C18.3334 0 14.1666 3.3334 12.5 10C15 6.6666 17.9166 5.4166 21.25 6.25C23.1518 6.72539 24.5111 8.10527 26.0158 9.63242C28.467 12.1205 31.3037 15 37.5 15C44.1666 15 48.3334 11.6666 50 5C47.5 8.3334 44.5834 9.5834 41.25 8.75C39.3482 8.27461 37.9889 6.89473 36.4842 5.36758C34.033 2.87949 31.1963 0 25 0ZM12.5 15C5.8334 15 1.6666 18.3334 0 25C2.5 21.6666 5.4166 20.4166 8.75 21.25C10.6518 21.7254 12.0111 23.1053 13.5158 24.6324C15.967 27.1205 18.8037 30 25 30C31.6666 30 35.8334 26.6666 37.5 20C35 23.3334 32.0834 24.5834 28.75 23.75C26.8482 23.2746 25.4889 21.8947 23.9842 20.3676C21.533 17.8795 18.6963 15 12.5 15Z" fill="url(#paint0_linear_217_183)"/>
<defs>
<linearGradient id="paint0_linear_217_183" x1="-1.389" y1="9.6" x2="41.7942" y2="34.4987" gradientUnits="userSpaceOnUse">
<stop stop-color="#2298BD"/>
<stop offset="1" stop-color="#0ED7B5"/>
</linearGradient>
</defs>
</svg>
