<svg viewBox="0 0 50 50" fill="none" xmlns="http://www.w3.org/2000/svg">
<g clip-path="url(#clip0_217_178)">
<path d="M49.8346 7.38099L26.3471 49.2172C25.8622 50.081 24.6163 50.086 24.1241 49.2265L0.170957 7.38488C-0.365371 6.44831 0.438731 5.31368 1.50436 5.50356L25.0171 9.68975C25.1671 9.71645 25.3207 9.71618 25.4706 9.68897L48.4915 5.5094C49.5536 5.31659 50.3614 6.44247 49.8346 7.38099Z" fill="url(#paint0_linear_217_178)"/>
<path d="M36.2172 0.0122779L18.8359 3.40489C18.6971 3.43199 18.5712 3.50429 18.478 3.61044C18.3849 3.71658 18.3298 3.85055 18.3215 3.99127L17.2523 21.9788C17.2465 22.0775 17.2638 22.1761 17.3028 22.267C17.3419 22.3578 17.4017 22.4383 17.4775 22.5021C17.5533 22.5659 17.6429 22.6112 17.7394 22.6345C17.8358 22.6577 17.9363 22.6582 18.033 22.636L22.8723 21.5236C23.325 21.4195 23.7342 21.8168 23.641 22.2703L22.2033 29.2833C22.1066 29.7553 22.5514 30.1588 23.0141 30.0187L26.0031 29.1142C26.4664 28.9741 26.9117 29.3788 26.8137 29.8512L24.5289 40.867C24.3859 41.5561 25.3061 41.9317 25.6896 41.3411L25.9461 40.9465L40.1094 12.7909C40.3467 12.3195 39.9375 11.7819 39.418 11.8819L34.4365 12.8395C33.9686 12.9294 33.5703 12.4952 33.7023 12.0391L36.9535 0.812472C37.0857 0.355274 36.6859 -0.0791618 36.2174 0.0122779H36.2172Z" fill="url(#paint1_linear_217_178)"/>
</g>
<defs>
<linearGradient id="paint0_linear_217_178" x1="-0.413878" y1="8.87893" x2="24.7893" y2="43.2407" gradientUnits="userSpaceOnUse">
<stop stop-color="#41D1FF"/>
<stop offset="1" stop-color="#BD34FE"/>
</linearGradient>
<linearGradient id="paint1_linear_217_178" x1="27.1961" y1="0.933438" x2="32.3676" y2="36.547" gradientUnits="userSpaceOnUse">
<stop stop-color="#FFEA83"/>
<stop offset="0.08333" stop-color="#FFDD35"/>
<stop offset="1" stop-color="#FFA800"/>
</linearGradient>
<clipPath id="clip0_217_178">
<rect width="50" height="50" fill="white"/>
</clipPath>
</defs>
</svg>
