<svg viewBox="0 0 61 61" fill="none" xmlns="http://www.w3.org/2000/svg">
<path d="M52.316 25.7736L48.896 15.5136C48.3999 14.0198 47.4456 12.7204 46.1688 11.7999C44.892 10.8794 43.3575 10.3847 41.7835 10.3861L18.9885 10.3861C17.4145 10.3847 15.88 10.8794 14.6032 11.7999C13.3264 12.7204 12.3721 14.0198 11.876 15.5136L8.45599 25.7736C7.54654 26.1541 6.76989 26.795 6.22365 27.6157C5.67742 28.4364 5.38599 29.4003 5.38599 30.3861L5.38599 42.8861C5.38599 44.7311 6.39599 46.3261 7.88599 47.1936L7.88599 52.8861C7.88599 53.5492 8.14938 54.185 8.61822 54.6539C9.08706 55.1227 9.72294 55.3861 10.386 55.3861H12.886C13.549 55.3861 14.1849 55.1227 14.6538 54.6539C15.1226 54.185 15.386 53.5492 15.386 52.8861L15.386 47.8861L45.386 47.8861V52.8861C45.386 53.5492 45.6494 54.185 46.1182 54.6539C46.5871 55.1227 47.2229 55.3861 47.886 55.3861H50.386C51.049 55.3861 51.6849 55.1227 52.1538 54.6539C52.6226 54.185 52.886 53.5492 52.886 52.8861V47.1936C53.6445 46.7586 54.2749 46.1314 54.7138 45.3752C55.1527 44.619 55.3845 43.7605 55.386 42.8861L55.386 30.3861C55.386 29.4003 55.0945 28.4364 54.5483 27.6157C54.0021 26.795 53.2254 26.1541 52.316 25.7736ZM18.9885 15.3861L41.781 15.3861C42.8585 15.3861 43.8135 16.0711 44.1535 17.0961L46.9185 25.3861L13.8535 25.3861L16.616 17.0961C16.7819 16.5981 17.1003 16.1649 17.5261 15.858C17.9519 15.5511 18.4636 15.386 18.9885 15.3861ZM14.136 40.3861C13.6434 40.3859 13.1556 40.2888 12.7005 40.1001C12.2455 39.9114 11.832 39.635 11.4838 39.2865C11.1356 38.9381 10.8594 38.5244 10.6711 38.0692C10.4827 37.6141 10.3858 37.1262 10.386 36.6336C10.3862 36.141 10.4833 35.6532 10.672 35.1982C10.8607 34.7431 11.1371 34.3297 11.4856 33.9814C11.834 33.6332 12.2477 33.357 12.7028 33.1687C13.158 32.9803 13.6459 32.8834 14.1385 32.8836C15.1334 32.8839 16.0874 33.2795 16.7907 33.9832C17.4939 34.6869 17.8888 35.6412 17.8885 36.6361C17.8882 37.631 17.4926 38.585 16.7889 39.2883C16.0852 39.9915 15.1309 40.3864 14.136 40.3861ZM46.636 40.3861C46.1434 40.3859 45.6556 40.2888 45.2005 40.1001C44.7455 39.9114 44.332 39.635 43.9838 39.2865C43.6356 38.9381 43.3594 38.5244 43.1711 38.0692C42.9827 37.6141 42.8858 37.1262 42.886 36.6336C42.8861 36.141 42.9833 35.6532 43.172 35.1982C43.3607 34.7431 43.6371 34.3297 43.9856 33.9814C44.334 33.6332 44.7477 33.357 45.2028 33.1687C45.658 32.9803 46.1459 32.8834 46.6385 32.8836C47.6334 32.8839 48.5874 33.2795 49.2907 33.9832C49.9939 34.6869 50.3888 35.6412 50.3885 36.6361C50.3882 37.631 49.9926 38.585 49.2889 39.2883C48.5852 39.9915 47.6309 40.3864 46.636 40.3861Z" fill="#00ADE7"/>
</svg>
