<svg viewBox="0 0 43 43" fill="none" xmlns="http://www.w3.org/2000/svg">
    <path
        d="M19.4624 21.4757C19.4624 22.0097 19.6745 22.5218 20.0521 22.8994C20.4296 23.277 20.9417 23.4891 21.4757 23.4891C22.0097 23.4891 22.5218 23.277 22.8994 22.8994C23.2769 22.5218 23.4891 22.0097 23.4891 21.4757C23.4891 20.9418 23.2769 20.4297 22.8994 20.0521C22.5218 19.6745 22.0097 19.4624 21.4757 19.4624C20.9417 19.4624 20.4296 19.6745 20.0521 20.0521C19.6745 20.4297 19.4624 20.9418 19.4624 21.4757ZM27.8513 21.4757C27.8513 22.0097 28.0634 22.5218 28.441 22.8994C28.8186 23.277 29.3307 23.4891 29.8647 23.4891C30.3986 23.4891 30.9107 23.277 31.2883 22.8994C31.6659 22.5218 31.878 22.0097 31.878 21.4757C31.878 20.9418 31.6659 20.4297 31.2883 20.0521C30.9107 19.6745 30.3986 19.4624 29.8647 19.4624C29.3307 19.4624 28.8186 19.6745 28.441 20.0521C28.0634 20.4297 27.8513 20.9418 27.8513 21.4757ZM11.0734 21.4757C11.0734 22.0097 11.2855 22.5218 11.6631 22.8994C12.0407 23.277 12.5528 23.4891 13.0867 23.4891C13.6207 23.4891 14.1328 23.277 14.5104 22.8994C14.888 22.5218 15.1001 22.0097 15.1001 21.4757C15.1001 20.9418 14.888 20.4297 14.5104 20.0521C14.1328 19.6745 13.6207 19.4624 13.0867 19.4624C12.5528 19.4624 12.0407 19.6745 11.6631 20.0521C11.2855 20.4297 11.0734 20.9418 11.0734 21.4757ZM38.8073 14.1941C37.8593 11.9417 36.5003 9.91995 34.768 8.18344C33.0478 6.45698 31.0057 5.08465 28.7573 4.14416C26.4504 3.17523 24.0008 2.68448 21.4757 2.68448H21.3918C18.85 2.69706 16.3878 3.2004 14.0725 4.1903C11.8433 5.14043 9.82036 6.5152 8.11629 8.23797C6.40075 9.97029 5.05432 11.9836 4.12315 14.2277C3.15842 16.5514 2.67186 19.022 2.68444 21.5638C2.69867 24.4768 3.38782 27.3468 4.69779 29.9486V36.3242C4.69779 36.8359 4.90107 37.3267 5.26292 37.6885C5.62476 38.0504 6.11553 38.2537 6.62725 38.2537H13.0071C15.6089 39.5636 18.4789 40.2528 21.3918 40.267H21.4799C23.9924 40.267 26.4294 39.7804 28.7238 38.8283C30.9608 37.899 32.9953 36.5427 34.7135 34.8352C36.4458 33.1196 37.809 31.1147 38.7612 28.879C39.751 26.5636 40.2544 24.1015 40.267 21.5596C40.2796 19.0052 39.7846 16.5263 38.8073 14.1941ZM32.4694 32.5659C29.5291 35.4769 25.6282 37.0792 21.4757 37.0792H21.4044C18.8751 37.0666 16.3626 36.4374 14.1438 35.2546L13.7914 35.0659H7.8856V29.16L7.69684 28.8077C6.514 26.5888 5.88483 24.0763 5.87225 21.547C5.85547 17.3652 7.45356 13.4391 10.3855 10.482C13.3133 7.52491 17.2267 5.88906 21.4086 5.87228H21.4799C23.5771 5.87228 25.6115 6.27915 27.5283 7.08449C29.3991 7.86885 31.0769 8.99717 32.5198 10.4401C33.9585 11.8788 35.091 13.5608 35.8753 15.4315C36.6891 17.3693 37.0959 19.4246 37.0876 21.547C37.0624 25.7247 35.4223 29.6382 32.4694 32.5659Z"
        fill="#151B72" stroke="#151B72" />
</svg>