<svg viewBox="0 0 60 60" fill="none" xmlns="http://www.w3.org/2000/svg">
<path d="M30 5C43.8075 5 55 16.1925 55 30C55 43.8075 43.8075 55 30 55C16.1925 55 5 43.8075 5 30C5 16.1925 16.1925 5 30 5ZM34.175 40H25.825L22.375 44.7425L23.76 49.0075C25.7742 49.6672 27.8805 50.0022 30 50C32.1775 50 34.275 49.65 36.24 49.0075L37.6225 44.7425L34.1725 40H34.175ZM13.235 27.18L10.005 29.5225L10 30C10 34.325 11.3725 38.3275 13.705 41.6H18.48L21.7875 37.05L19.2175 29.125L13.235 27.18ZM46.765 27.18L40.7825 29.125L38.2125 37.05L41.5175 41.6H46.2925C48.7096 38.2155 50.0061 34.159 50 30L49.9925 29.5225L46.765 27.18ZM35.725 10.8325L32.5 13.1825V19.475L39.235 24.3675L44.8325 22.55L46.2175 18.2925C43.6366 14.7197 39.9495 12.0976 35.7275 10.8325H35.725ZM24.27 10.8325C20.0476 12.0983 16.3605 14.7212 13.78 18.295L15.165 22.55L20.7625 24.3675L27.5 19.475V13.1825L24.2725 10.8325H24.27Z" fill="#01ABE6"/>
</svg>
