<svg viewBox="0 0 61 56" fill="none" xmlns="http://www.w3.org/2000/svg">
    <path
        d="M54.8613 20.7479H53.584C52.9923 20.4276 52.3634 20.1689 51.709 19.9766C49.6465 19.3514 46.923 19.0291 43.6113 19.0291C40.2996 19.0291 37.5762 19.3514 35.5184 19.9766C33.8707 20.4804 33.1453 21.0358 32.9109 21.2517C32.1543 20.92 31.3262 20.7479 30.4875 20.7479C29.6488 20.7479 28.8207 20.92 28.0641 21.2517C27.8297 21.0368 27.1043 20.4804 25.4566 19.9766C23.3965 19.3514 20.673 19.0291 17.3613 19.0291C14.0496 19.0291 11.3262 19.3514 9.26836 19.9766C8.61397 20.1689 7.98507 20.4276 7.39336 20.7479H6.11133C5.61405 20.7479 5.13713 20.9289 4.7855 21.2513C4.43387 21.5736 4.23633 22.0108 4.23633 22.4666C4.23633 22.9225 4.43387 23.3596 4.7855 23.682C5.13713 24.0043 5.61405 24.1854 6.11133 24.1854H6.13125C6.24844 29.0688 6.88594 32.0035 8.25352 34.0929C9.11021 35.4418 10.4235 36.4978 11.9941 37.1007C13.4273 37.6636 15.184 37.9375 17.3613 37.9375C20.1914 37.9375 24.2145 37.539 26.4691 34.095C27.6035 32.3612 28.2375 30.0463 28.4859 26.5196C28.5685 26.3232 28.611 26.1146 28.6113 25.9041C28.6113 25.4483 28.8089 25.0111 29.1605 24.6888C29.5121 24.3664 29.989 24.1854 30.4863 24.1854C30.9836 24.1854 31.4605 24.3664 31.8122 24.6888C32.1638 25.0111 32.3613 25.4483 32.3613 25.9041C32.3619 26.1139 32.4044 26.3218 32.4867 26.5175C32.7352 30.0442 33.3691 32.3591 34.5035 34.0929C35.3602 35.4418 36.6735 36.4978 38.2441 37.1007C39.6773 37.6636 41.434 37.9375 43.6113 37.9375C46.4414 37.9375 50.4645 37.539 52.7191 34.095C54.0867 32.0057 54.7266 29.0709 54.8414 24.1875H54.8613C55.3586 24.1875 55.8355 24.0064 56.1872 23.6841C56.5388 23.3618 56.7363 22.9246 56.7363 22.4688C56.7363 22.0129 56.5388 21.5758 56.1872 21.2534C55.8355 20.9311 55.3586 20.75 54.8613 20.75V20.7479Z"
        fill="#01ABE6" />
</svg>