<svg viewBox="0 0 43 43" fill="none" xmlns="http://www.w3.org/2000/svg">
    <path
        d="M39.3708 35.7916V21.7864C39.3709 20.812 39.1721 19.8478 38.7865 18.953C38.401 18.0581 37.8368 17.2514 37.1285 16.5822L23.9339 4.11243C23.2693 3.48416 22.3895 3.13409 21.475 3.13409C20.5605 3.13409 19.6807 3.48416 19.0161 4.11243L5.82151 16.5822C5.11324 17.2514 4.54903 18.0581 4.16346 18.953C3.77788 19.8478 3.57906 20.812 3.57916 21.7864V35.7916C3.57916 36.7409 3.95625 37.6513 4.62748 38.3225C5.2987 38.9937 6.20908 39.3708 7.15833 39.3708H35.7917C36.7409 39.3708 37.6513 38.9937 38.3225 38.3225C38.9937 37.6513 39.3708 36.7409 39.3708 35.7916Z"
        stroke="#151B72" stroke-width="4.5" stroke-linecap="round" stroke-linejoin="round" />
</svg>