<svg viewBox="0 0 611 611" fill="none" xmlns="http://www.w3.org/2000/svg">
<circle cx="305.5" cy="305.5" r="305.5" fill="#151B72"/>
<circle cx="306" cy="305" r="275" stroke="#00ADE7" stroke-width="8"/>
<path d="M319.791 212C319.524 215.2 318.857 219.067 317.791 223.6C316.991 227.867 315.924 232 314.591 236C313.257 239.733 311.924 242.933 310.591 245.6C309.257 248.267 308.191 249.333 307.391 248.8C307.124 248.8 306.991 248.133 306.991 246.8C306.991 245.467 306.991 244 306.991 242.4C306.991 240.533 307.124 238.8 307.391 237.2C307.657 235.6 307.791 234.4 307.791 233.6C308.591 229.333 309.124 225.333 309.391 221.6C309.657 217.867 310.057 214 310.591 210C311.124 204.933 311.391 200.133 311.391 195.6C311.657 191.067 311.391 186.4 310.591 181.6C310.591 181.067 310.457 180.4 310.191 179.6C309.924 178.8 310.057 178.4 310.591 178.4C311.391 178.4 312.324 179.067 313.391 180.4C314.457 181.467 315.124 182.267 315.391 182.8C316.991 186 318.191 189.733 318.991 194C320.057 198.267 320.324 204.267 319.791 212ZM324.991 184C329.524 194.667 332.191 205.333 332.991 216C334.057 226.4 333.791 236.933 332.191 247.6C330.857 258 328.324 268.4 324.591 278.8C321.124 289.2 317.124 299.333 312.591 309.2C306.457 322.533 299.924 335.6 292.991 348.4C286.324 361.2 279.791 373.733 273.391 386C266.991 398.267 260.991 410.267 255.391 422C250.057 433.467 245.791 444.8 242.591 456C242.057 457.333 241.391 457.867 240.591 457.6C240.057 457.333 239.791 456.8 239.791 456C239.257 443.2 241.124 430.4 245.391 417.6C249.657 404.533 254.991 391.467 261.391 378.4C268.057 365.333 275.124 352.267 282.591 339.2C290.324 325.867 297.257 312.4 303.391 298.8C307.391 290.267 310.991 281.333 314.191 272C317.391 262.667 319.924 253.067 321.791 243.2C323.924 233.333 325.124 223.6 325.391 214C325.924 204.133 325.257 194.533 323.391 185.2C322.857 182.8 322.857 181.733 323.391 182C323.657 182 324.191 182.667 324.991 184ZM194.991 340.4C194.991 341.2 194.857 342.933 194.591 345.6C194.591 348 194.191 349.2 193.391 349.2C192.857 349.467 192.191 348.533 191.391 346.4C190.591 344 189.924 342.133 189.391 340.8C188.324 337.333 187.124 333.2 185.791 328.4C184.457 323.333 183.124 318.267 181.791 313.2C180.724 307.867 179.657 302.667 178.591 297.6C177.791 292.533 177.257 288.133 176.991 284.4C176.724 282.533 176.191 278.933 175.391 273.6C174.591 268 173.524 261.467 172.191 254C170.857 246.533 169.257 238.533 167.391 230C165.791 221.467 163.924 213.333 161.791 205.6C159.924 197.6 157.924 190.533 155.791 184.4C153.657 178 151.524 173.333 149.391 170.4C148.057 168.533 147.657 167.333 148.191 166.8C148.724 166.267 149.391 166.4 150.191 167.2C150.991 167.733 151.657 168.267 152.191 168.8C156.457 172 160.457 176.533 164.191 182.4C168.191 188.267 171.791 194.533 174.991 201.2C178.191 207.867 180.857 214.8 182.991 222C185.124 228.933 186.591 235.2 187.391 240.8C189.791 256.533 191.524 273.2 192.591 290.8C193.657 308.4 194.457 324.933 194.991 340.4ZM220.191 396.8C214.857 378.933 210.591 360.533 207.391 341.6C204.191 322.667 201.391 303.6 198.991 284.4C197.124 270.267 194.991 256.133 192.591 242C190.191 227.867 186.457 213.2 181.391 198C180.857 196.667 180.591 196 180.591 196C180.591 195.733 180.857 195.467 181.391 195.2C181.924 195.2 182.857 195.867 184.191 197.2C189.791 202.8 194.457 211.467 198.191 223.2C202.191 234.933 205.524 247.467 208.191 260.8C211.124 273.867 213.524 286.667 215.391 299.2C217.257 311.467 218.857 321.333 220.191 328.8C221.524 334.933 222.591 341.2 223.391 347.6C224.457 354 225.257 360.4 225.791 366.8C227.657 359.6 230.191 352.267 233.391 344.8C236.591 337.067 239.791 329.6 242.991 322.4C246.457 315.2 249.791 308.533 252.991 302.4C256.457 296 259.257 290.533 261.391 286C266.991 274 273.391 262 280.591 250C287.791 237.733 294.457 227.467 300.591 219.2C302.991 216 304.324 214.4 304.591 214.4C305.124 214.933 305.124 215.867 304.591 217.2C304.324 218.267 303.924 219.467 303.391 220.8C298.057 240 290.724 258.667 281.391 276.8C272.324 294.933 263.124 313.2 253.791 331.6C248.457 341.733 243.124 352 237.791 362.4C232.457 372.8 228.457 384.4 225.791 397.2C225.257 400.133 224.457 402 223.391 402.8C222.591 403.333 221.524 401.333 220.191 396.8ZM232.591 456C233.391 456.533 233.524 456.8 232.991 456.8C232.724 457.067 232.191 456.933 231.391 456.4C220.991 451.6 212.057 445.067 204.591 436.8C197.124 428.267 190.724 418.8 185.391 408.4C180.324 398 176.191 386.933 172.991 375.2C169.791 363.467 167.124 351.867 164.991 340.4C162.057 324.4 159.791 308.4 158.191 292.4C156.591 276.4 154.724 260.8 152.591 245.6C150.724 230.133 148.457 215.467 145.791 201.6C143.124 187.467 139.391 174.533 134.591 162.8C134.324 162.267 134.057 161.867 133.791 161.6C133.791 161.067 134.057 160.533 134.591 160C134.857 159.733 135.257 160 135.791 160.8C136.324 161.6 136.724 162.267 136.991 162.8C145.257 174 151.391 186.8 155.391 201.2C159.657 215.333 162.857 230.4 164.991 246.4C167.124 262.133 168.857 278.4 170.191 295.2C171.791 311.733 174.057 327.867 176.991 343.6C178.857 353.733 181.391 364.133 184.591 374.8C187.791 385.2 191.657 395.467 196.191 405.6C200.724 415.467 205.924 424.8 211.791 433.6C217.924 442.133 224.857 449.6 232.591 456ZM230.591 446C228.991 444.4 226.857 442.267 224.191 439.6C221.791 436.933 219.524 434.133 217.391 431.2C215.791 428.533 214.057 425.067 212.191 420.8C210.324 416.267 208.591 411.867 206.991 407.6C205.657 403.333 204.591 399.6 203.791 396.4C203.257 392.933 203.391 391.067 204.191 390.8C204.457 390.8 204.991 391.467 205.791 392.8C206.857 393.867 207.791 395.2 208.591 396.8C209.391 398.4 210.191 400 210.991 401.6C211.791 402.933 212.457 403.867 212.991 404.4C215.124 408.133 216.991 411.6 218.591 414.8C220.191 417.733 221.657 420.933 222.991 424.4C224.591 427.867 226.191 430.933 227.791 433.6C229.657 436 230.724 437.067 230.991 436.8C231.257 436.8 231.257 436.133 230.991 434.8C230.991 433.2 230.857 431.467 230.591 429.6C230.591 427.733 230.457 426 230.191 424.4C230.191 422.533 230.191 421.2 230.191 420.4C229.657 410.267 230.457 401.2 232.591 393.2C234.991 385.2 237.657 377.867 240.591 371.2C246.724 357.6 253.924 344 262.191 330.4C270.457 316.8 278.857 304 287.391 292C287.924 291.467 288.991 290.267 290.591 288.4C292.191 286.533 293.257 285.733 293.791 286C294.591 286.267 294.591 287.6 293.791 290C293.257 292.133 292.857 293.6 292.591 294.4C291.524 297.6 290.057 301.333 288.191 305.6C286.591 309.867 284.857 314.4 282.991 319.2C281.124 323.733 279.124 328.133 276.991 332.4C275.124 336.667 273.391 340.267 271.791 343.2C270.991 344.8 269.524 347.867 267.391 352.4C265.257 356.933 262.857 362.533 260.191 369.2C257.524 375.6 254.724 382.533 251.791 390C248.857 397.467 246.057 404.8 243.391 412C240.991 418.933 238.991 425.333 237.391 431.2C235.791 437.067 234.991 441.733 234.991 445.2C234.991 447.067 234.591 448 233.791 448C232.991 448 231.924 447.333 230.591 446ZM451 173.2C456.333 173.2 462.467 174.267 469.4 176.4C476.333 178.267 481.933 181.467 486.2 186C489.133 188.667 488.733 189.467 485 188.4C481.267 187.867 477.4 187.067 473.4 186C469.667 184.667 465.533 184 461 184C444.467 183.733 432.467 188.533 425 198.4C417.533 208 413.267 220.267 412.2 235.2C411.4 245.6 411.533 256 412.6 266.4C413.933 276.533 415.4 286.667 417 296.8C418.6 306.933 419.933 317.067 421 327.2C422.333 337.333 422.467 347.6 421.4 358C421.133 360.933 420.733 362.667 420.2 363.2C419.933 363.733 419.533 363.6 419 362.8C418.733 362 418.333 360.933 417.8 359.6C417.533 358 417.267 356.667 417 355.6C415.4 344.933 413.4 334.267 411 323.6C408.6 312.667 406.333 301.733 404.2 290.8C402.067 279.867 400.333 268.933 399 258C397.933 247.067 397.933 236 399 224.8C399.8 217.6 401.533 210.933 404.2 204.8C406.867 198.4 410.333 192.933 414.6 188.4C419.133 183.6 424.467 179.867 430.6 177.2C436.733 174.533 443.533 173.2 451 173.2ZM379.8 226C380.6 218.8 382.467 211.6 385.4 204.4C388.333 196.933 392.2 190.267 397 184.4C402.067 178.267 408.067 173.467 415 170C422.2 166.267 430.2 164.4 439 164.4C439.267 164.4 439.933 164.533 441 164.8C442.333 164.8 443.4 164.933 444.2 165.2C445.267 165.467 445.667 165.733 445.4 166C445.4 166.267 444.467 166.533 442.6 166.8C435.4 168.133 428.733 170.533 422.6 174C416.467 177.467 411.133 181.733 406.6 186.8C402.067 191.867 398.333 197.6 395.4 204C392.733 210.133 391.133 216.533 390.6 223.2C389.533 236 390.067 248.933 392.2 262C394.333 274.8 396.733 287.6 399.4 300.4C402.333 313.2 404.733 326.133 406.6 339.2C408.733 352 409.267 364.8 408.2 377.6C407.667 382.667 406.467 388 404.6 393.6C402.733 399.2 400.2 404.4 397 409.2C394.067 414 390.333 418.133 385.8 421.6C381.267 424.8 376.2 426.8 370.6 427.6C366.333 428.133 364.467 428 365 427.2C365.8 426.133 367.4 424.933 369.8 423.6C379.4 418.267 385.933 412 389.4 404.8C393.133 397.6 395.533 388.667 396.6 378C397.667 365.733 397.133 353.2 395 340.4C393.133 327.6 390.867 314.8 388.2 302C385.533 289.2 383.133 276.533 381 264C379.133 251.2 378.733 238.533 379.8 226ZM369 447.6C380.2 447.6 389.667 445.6 397.4 441.6C405.133 437.333 411.533 431.867 416.6 425.2C421.667 418.267 425.533 410.4 428.2 401.6C430.867 392.533 432.6 383.2 433.4 373.6C434.467 361.6 434.2 349.6 432.6 337.6C431 325.6 429.133 313.733 427 302C425.133 290 423.4 278 421.8 266C420.2 254 419.933 241.867 421 229.6C422.067 217.333 425.8 207.6 432.2 200.4C438.867 193.2 448.733 189.6 461.8 189.6C466.333 189.6 472.067 190.4 479 192C486.2 193.6 492.067 195.867 496.6 198.8C501.4 202 501 202.933 495.4 201.6C492.2 200.8 488.067 199.867 483 198.8C477.933 197.733 474.067 197.2 471.4 197.2C461 197.2 452.067 199.467 444.6 204C437.133 208.533 432.867 216.533 431.8 228C430.467 240.267 430.733 252.533 432.6 264.8C434.467 276.8 436.6 288.933 439 301.2C441.4 313.467 443.4 325.733 445 338C446.867 350.267 447.267 362.533 446.2 374.8C445.4 384.933 443.4 394.8 440.2 404.4C437 414 432.467 422.667 426.6 430.4C420.733 438.133 413.4 444.4 404.6 449.2C396.067 453.733 385.933 456 374.2 456C371 456 366.867 455.467 361.8 454.4C356.733 453.333 351.667 452 346.6 450.4C341.533 448.533 336.733 446.4 332.2 444C327.933 441.333 324.733 438.533 322.6 435.6C320.2 432.933 321 432.267 325 433.6C329.533 436 335 438.933 341.4 442.4C348.067 445.867 357.267 447.6 369 447.6ZM366.6 433.6C373.267 433.6 379.4 432.533 385 430.4C390.6 428.267 396.333 425.467 402.2 422V423.2C402.2 425.6 400.867 428 398.2 430.4C395.8 432.533 392.733 434.533 389 436.4C385.267 438.267 381 439.733 376.2 440.8C371.667 441.867 367 442.4 362.2 442.4C360.333 442.4 357.8 442.133 354.6 441.6C351.4 440.8 348.067 439.867 344.6 438.8C341.4 437.467 338.333 436 335.4 434.4C332.467 432.8 330.467 430.933 329.4 428.8C326.467 425.6 325.533 423.867 326.6 423.6C327.667 423.067 329.133 423.467 331 424.8C335.267 426.133 340.067 428 345.4 430.4C351 432.533 358.067 433.6 366.6 433.6Z" fill="#00ADE7"/>
</svg>
