<svg viewBox="0 0 43 43" fill="none" xmlns="http://www.w3.org/2000/svg">
    <g clip-path="url(#clip0_13_70)">
        <path fill-rule="evenodd" clip-rule="evenodd"
            d="M21.4757 4.0267C15.1324 4.0267 10.7379 8.56345 10.7379 14.0934C10.7379 16.735 11.8761 18.4557 13.3794 20.2785L13.9539 20.9576C14.5525 21.6663 15.2156 22.4502 15.7605 23.2341C16.5229 24.3374 17.2021 25.6393 17.4276 27.2339C17.4813 27.7519 17.3322 28.2706 17.0117 28.681C16.6911 29.0914 16.224 29.3617 15.7084 29.435C15.1928 29.5083 14.6688 29.379 14.2466 29.0742C13.8243 28.7694 13.5366 28.3128 13.4438 27.8003C13.3364 27.0433 13.0063 26.3319 12.4506 25.5266C11.9963 24.8942 11.5107 24.285 10.9956 23.7012C10.7701 23.4327 10.5312 23.1508 10.2762 22.8421C8.59299 20.8046 6.71118 18.1631 6.71118 14.0934C6.71118 6.20112 13.0546 0 21.4757 0C29.8969 0 36.2403 6.20112 36.2403 14.0934C36.2403 18.1631 34.3585 20.8046 32.6753 22.8421C32.4203 23.1508 32.1814 23.4327 31.9559 23.6985C31.4002 24.3562 30.9277 24.9145 30.5036 25.5266C29.9452 26.3319 29.6177 27.0433 29.5104 27.8003C29.473 28.0621 29.3844 28.3139 29.2497 28.5414C29.115 28.769 28.9369 28.9677 28.7253 29.1264C28.5138 29.2851 28.2731 29.4005 28.017 29.4662C27.7609 29.5318 27.4943 29.5464 27.2326 29.509C26.9708 29.4716 26.719 29.3831 26.4915 29.2484C26.2639 29.1137 26.0652 28.9355 25.9065 28.724C25.7478 28.5125 25.6324 28.2718 25.5668 28.0157C25.5011 27.7595 25.4866 27.493 25.5239 27.2312C25.7494 25.6393 26.4286 24.3374 27.191 23.2341C27.7359 22.4502 28.399 21.6663 28.9976 20.9576C29.199 20.7214 29.3922 20.4932 29.5694 20.2785C31.0754 18.4557 32.2136 16.735 32.2136 14.0934C32.2136 8.56345 27.8191 4.0267 21.4757 4.0267ZM16.1068 40.9381C16.1068 40.4041 16.3189 39.892 16.6965 39.5145C17.0741 39.1369 17.5862 38.9248 18.1202 38.9248H24.8313C25.3653 38.9248 25.8774 39.1369 26.255 39.5145C26.6326 39.892 26.8447 40.4041 26.8447 40.9381C26.8447 41.4721 26.6326 41.9842 26.255 42.3618C25.8774 42.7393 25.3653 42.9515 24.8313 42.9515H18.1202C17.5862 42.9515 17.0741 42.7393 16.6965 42.3618C16.3189 41.9842 16.1068 41.4721 16.1068 40.9381ZM15.4357 32.2136C14.9017 32.2136 14.3896 32.4257 14.012 32.8033C13.6345 33.1809 13.4223 33.693 13.4223 34.2269C13.4223 34.7609 13.6345 35.273 14.012 35.6506C14.3896 36.0282 14.9017 36.2403 15.4357 36.2403H27.5158C28.0498 36.2403 28.5619 36.0282 28.9394 35.6506C29.317 35.273 29.5291 34.7609 29.5291 34.2269C29.5291 33.693 29.317 33.1809 28.9394 32.8033C28.5619 32.4257 28.0498 32.2136 27.5158 32.2136H15.4357Z"
            fill="#151B72" />
    </g>
    <defs>
        <clipPath id="clip0_13_70">
            <rect width="42.9515" height="42.9515" fill="white" />
        </clipPath>
    </defs>
</svg>