<svg viewBox="0 0 512 512" fill="none" xmlns="http://www.w3.org/2000/svg">
<path d="M256 48C141.31 48 48 141.31 48 256C48 370.69 141.31 464 256 464C370.69 464 464 370.69 464 256C464 141.31 370.69 48 256 48ZM256 367.91C252.044 367.91 248.178 366.737 244.889 364.539C241.6 362.342 239.036 359.218 237.522 355.564C236.009 351.909 235.613 347.888 236.384 344.008C237.156 340.129 239.061 336.565 241.858 333.768C244.655 330.971 248.219 329.066 252.098 328.294C255.978 327.523 259.999 327.919 263.654 329.432C267.308 330.946 270.432 333.51 272.629 336.799C274.827 340.088 276 343.954 276 347.91C276 353.214 273.893 358.301 270.142 362.052C266.391 365.803 261.304 367.91 256 367.91ZM277.72 166.76L271.98 288.76C271.98 293.003 270.294 297.073 267.294 300.074C264.293 303.074 260.223 304.76 255.98 304.76C251.737 304.76 247.667 303.074 244.666 300.074C241.666 297.073 239.98 293.003 239.98 288.76L234.24 166.82V166.77C234.114 163.839 234.583 160.913 235.618 158.169C236.652 155.424 238.232 152.917 240.261 150.798C242.291 148.68 244.728 146.995 247.426 145.843C250.123 144.691 253.027 144.098 255.96 144.098C258.893 144.098 261.797 144.691 264.494 145.843C267.192 146.995 269.629 148.68 271.659 150.798C273.688 152.917 275.268 155.424 276.302 158.169C277.337 160.913 277.806 163.839 277.68 166.77L277.72 166.76Z" fill="#FF176B"/>
</svg>
