<svg viewBox="0 0 60 60" fill="none" xmlns="http://www.w3.org/2000/svg">
<g clip-path="url(#clip0_94_6)">
<path d="M9.29297 30.6211C8.61328 30.6211 7.98047 30.1874 7.76953 29.5077C6.04687 24.1288 5.80078 14.6249 9.49218 10.3124C8.67187 7.19522 9.1289 2.97647 10.6406 0.714753C10.957 0.246003 11.4726 -0.0235282 12.0468 -9.06824e-05C16.3476 0.187468 19.1484 1.98038 21.6093 3.621C25.1132 2.707 28.5234 2.39053 32.5663 2.61319C33.5624 2.67178 34.5468 2.89444 35.414 3.09366C36.2343 3.28116 37.0781 3.48044 37.5702 3.43356C38.0156 3.38669 38.8124 2.84762 39.457 2.40231C40.0546 1.99216 40.6874 1.57028 41.3437 1.27731C43.2187 0.456999 44.9062 0.0819992 47.1796 -3.20886e-05C48.0585 -0.0234696 48.8085 0.656159 48.8436 1.54684C48.8787 2.43753 48.1874 3.17569 47.2968 3.19919C45.41 3.2695 44.1444 3.53903 42.6327 4.207C42.246 4.38278 41.7655 4.69919 41.2616 5.05075C40.2655 5.73044 39.1288 6.50387 37.8632 6.62106C36.8436 6.71481 35.7889 6.48044 34.6757 6.2109C33.9022 6.03512 33.0936 5.84762 32.3788 5.80075C28.4296 5.57809 25.1483 5.91794 21.7499 6.89059C21.3046 7.0195 20.8241 6.94919 20.4257 6.67965L20.0272 6.41012C17.8827 4.99221 15.8555 3.63284 12.8906 3.26956C12.1523 5.15628 12.0586 8.28518 12.7969 10.1367C13.0547 10.7696 12.8672 11.5078 12.3516 11.9414C9.45709 14.4024 9.09381 23.1094 10.8165 28.5117C11.086 29.3555 10.6172 30.2578 9.77349 30.5274C9.60943 30.5977 9.44537 30.6211 9.29302 30.6211H9.29297ZM21.4804 46.4413C21.3632 46.4413 21.2459 46.4296 21.1287 46.4062C20.2615 46.2187 19.7225 45.3632 19.91 44.496L20.0154 44.039C20.5076 41.8124 20.9647 40.0194 21.5037 38.6835C14.9295 37.3124 10.1365 34.1835 7.8631 29.7538C7.46467 28.9687 7.76935 27.996 8.55457 27.5976C9.33978 27.1991 10.3124 27.5039 10.7108 28.2891C12.7616 32.2852 17.5897 34.9922 24.3163 35.918C24.9608 36.0117 25.4882 36.4805 25.6522 37.1015C25.8163 37.7343 25.5819 38.4023 25.0546 38.789C24.7147 39.0937 24.0936 40.3711 23.1444 44.7187L23.0389 45.1875C22.8749 45.9257 22.2186 46.4413 21.4803 46.4413H21.4804ZM18.5271 58.1718C18.4216 58.1718 18.3279 58.1601 18.2224 58.1366C17.3552 57.9608 16.781 57.1523 16.9568 56.2851C17.2498 54.7968 18.2927 54.1757 18.9138 53.8124C19.3357 53.5663 19.4646 53.4726 19.5349 53.3085C19.8982 52.5351 19.8044 50.5312 19.7224 48.9257C19.6873 48.246 19.6522 47.5546 19.6404 46.8866C15.9256 47.5312 11.8944 47.7304 9.76148 44.203C9.33961 43.4999 9.07007 42.7851 8.82398 42.1405C8.54273 41.414 8.30836 40.7812 7.92164 40.3124C7.3592 39.6327 7.46461 38.6249 8.14429 38.0624C8.82398 37.4999 9.83179 37.5937 10.3943 38.2851C11.1091 39.164 11.4841 40.1483 11.8123 41.0155C12.0232 41.578 12.2224 42.1054 12.4919 42.5507C13.6404 44.4491 16.1481 44.3319 20.9763 43.3593C21.4802 43.2538 21.9958 43.4062 22.3709 43.746C22.7459 44.0976 22.9334 44.6015 22.8748 45.1053C22.7576 46.1248 22.8279 47.4608 22.8865 48.7498C23.0037 51.0116 23.1091 53.1444 22.3943 54.6561C21.8787 55.7459 21.0466 56.2381 20.4959 56.5545C20.3435 56.6483 20.1091 56.7772 20.0623 56.8358C19.9568 57.6209 19.2888 58.1718 18.5271 58.1718V58.1718ZM41.8239 57.8671C41.2966 57.8671 40.7927 57.6095 40.4763 57.1407C40.3474 56.9298 40.1599 56.8009 39.8317 56.5782C39.3161 56.2149 38.613 55.7227 38.0856 54.7032C37.1364 52.8399 37.2888 50.1329 37.4411 47.2735C37.5348 45.5157 37.6285 43.6993 37.441 42.2696C37.2769 41.0626 36.8551 40.5235 36.2691 39.7735C35.8941 39.2813 35.4605 38.7305 35.1207 38.0039C34.898 37.5234 34.9332 36.9726 35.191 36.5156C35.4605 36.0586 35.9293 35.7656 36.4566 35.7304C42.4683 35.2851 47.2144 32.4492 49.4996 27.9609C49.898 27.1757 50.859 26.8593 51.6558 27.2578C52.441 27.6562 52.7574 28.6172 52.359 29.414C49.9215 34.2304 45.2691 37.4765 39.3863 38.5898C39.9136 39.3632 40.4293 40.3476 40.6285 41.8593C40.8629 43.582 40.7574 45.5507 40.6519 47.4492C40.5347 49.6523 40.4058 52.1484 40.9567 53.25C41.0973 53.5312 41.2731 53.6601 41.6715 53.9414C42.1051 54.2343 42.6911 54.6445 43.1715 55.3827C43.652 56.1209 43.4411 57.1171 42.7029 57.5976C42.4334 57.7851 42.1287 57.8671 41.824 57.8671H41.8239ZM50.9294 30.2931C50.7888 30.2931 50.6363 30.2697 50.4957 30.2346C49.6402 29.9885 49.148 29.1096 49.3941 28.2541C51.1636 22.0315 49.9566 13.9455 46.8629 11.3088C46.359 10.8752 46.1715 10.1838 46.3941 9.5627C47.1441 7.41817 46.6402 4.19551 45.7848 2.2502C45.4332 1.44161 45.7965 0.49239 46.6051 0.140827C47.4137 -0.210735 48.3629 0.152546 48.7145 0.96114C49.6989 3.1877 50.3434 6.69161 49.6989 9.60958C53.5192 13.8283 54.2692 22.8283 52.4762 29.133C52.2653 29.8361 51.6325 30.2932 50.9294 30.2931V30.2931ZM36.5387 60.0236C36.2457 60.0236 35.9411 59.9416 35.6715 59.7658C35.3786 59.5783 34.4996 59.0158 32.8707 56.4846C32.1325 55.3361 31.5934 49.6174 31.2653 39.469C31.2419 38.59 31.9333 37.8401 32.8122 37.8166C33.6911 37.7931 34.4411 38.4846 34.4645 39.3635C34.6755 46.008 35.1677 53.5432 35.613 54.8322C36.8083 56.6838 37.3708 57.0588 37.3942 57.0705C38.1325 57.551 38.3551 58.5354 37.8746 59.2854C37.5817 59.7658 37.0661 60.0236 36.5387 60.0236V60.0236ZM24.3863 60.0236C23.859 60.0236 23.3433 59.7658 23.0386 59.2854C22.5582 58.5471 22.7808 57.551 23.5191 57.0705C23.5426 57.0588 24.1051 56.6838 25.3004 54.8322C25.7457 53.5549 26.2261 46.008 26.4488 39.3635C26.4722 38.4846 27.2222 37.7815 28.1011 37.8166C28.9801 37.84 29.6832 38.59 29.648 39.469C29.3199 49.6174 28.7808 55.3479 28.0426 56.4846C26.4136 59.0041 25.5347 59.5783 25.2418 59.7658C24.984 59.9416 24.6793 60.0236 24.3863 60.0236V60.0236Z" fill="#01ABE6"/>
</g>
<defs>
<clipPath id="clip0_94_6">
<rect width="60" height="60" fill="white"/>
</clipPath>
</defs>
</svg>
