<svg viewBox="0 0 24 24" fill="none" xmlns="http://www.w3.org/2000/svg">
<path d="M20.1159 5.90097C20.0347 5.79319 19.9479 5.68971 19.8559 5.59097C19.9485 5.34441 20.0188 5.09006 20.0659 4.83097C20.2052 3.88317 20.0843 2.91532 19.7159 2.03097C19.7159 2.03097 18.5959 1.68097 16.0259 3.41097C14.9348 3.10971 13.8078 2.95832 12.6759 2.96097C11.5408 2.95898 10.4106 3.11035 9.31593 3.41097C6.74593 1.66097 5.62593 2.03097 5.62593 2.03097C5.26201 2.90595 5.14109 3.86297 5.27593 4.80097C5.32338 5.07084 5.39707 5.33542 5.49593 5.59097C5.40593 5.69097 5.31593 5.80097 5.23593 5.90097C4.48972 6.83699 4.0936 8.00411 4.11593 9.20097C4.11356 9.48482 4.12691 9.76859 4.15593 10.051C4.47593 14.481 7.42593 15.511 10.2359 15.831C9.83822 16.2008 9.56853 16.6876 9.46593 17.221C9.37299 17.5767 9.32925 17.9434 9.33593 18.311V19.621C8.21693 19.721 7.06893 19.558 6.71293 18.56C6.33078 17.6047 5.69701 16.7709 4.87893 16.147C4.81914 16.1146 4.76227 16.0771 4.70893 16.035C4.6371 15.8462 4.50983 15.6835 4.34384 15.5684C4.17786 15.4533 3.98093 15.3911 3.77893 15.39H3.77393C3.50958 15.39 3.25598 15.4946 3.06859 15.6811C2.8812 15.8675 2.77526 16.1206 2.77393 16.385C2.77093 17.197 3.58393 17.722 3.91693 17.9C4.30599 18.292 4.61895 18.7528 4.83993 19.259C5.20393 20.282 6.26893 21.837 9.30593 21.635L9.30793 21.733L9.31193 22.001C9.31193 22.2662 9.41729 22.5205 9.60483 22.7081C9.79236 22.8956 10.0467 23.001 10.3119 23.001H15.0259C15.2912 23.001 15.5455 22.8956 15.733 22.7081C15.9206 22.5205 16.0259 22.2662 16.0259 22.001C16.0259 22.001 16.0339 18.841 16.0339 18.311C16.0406 17.9434 15.9969 17.5767 15.9039 17.221L15.9019 17.215L15.9059 17.221C15.8969 17.186 15.8839 17.158 15.8739 17.124C15.7625 16.6285 15.5047 16.178 15.1339 15.831L15.1459 15.852L15.1259 15.832C17.9359 15.512 20.8659 14.462 21.1859 10.052C21.215 9.76959 21.2283 9.48582 21.2259 9.20197C21.2437 8.00748 20.852 6.84292 20.1159 5.90197V5.90097Z" />
</svg>
