<svg viewBox="0 0 79 79" fill="none" xmlns="http://www.w3.org/2000/svg">
<path d="M53.4567 72.4167C52.5837 72.4167 51.7464 72.0699 51.1291 71.4526C50.5118 70.8352 50.165 69.998 50.165 69.125V60.5667C50.2673 59.5822 50.1619 58.5873 49.8558 57.6461C49.5496 56.7049 49.0494 55.8383 48.3875 55.1025C47.9777 54.658 47.6982 54.1093 47.5797 53.5165C47.4612 52.9237 47.5082 52.3097 47.7156 51.7418C47.9231 51.174 48.2829 50.6742 48.7556 50.2973C49.2283 49.9205 49.7956 49.6811 50.3954 49.6054C58.4271 48.6508 65.8334 46.0833 65.8334 32.1596C65.8359 29.5594 65.0685 27.0167 63.6279 24.8521C62.2986 22.8594 61.8133 20.421 62.2784 18.0712C62.575 16.5384 62.575 14.9628 62.2784 13.43C59.8136 14.2634 57.4928 15.4737 55.3988 17.0179C55.0028 17.2991 54.5496 17.4891 54.0716 17.5745C53.5935 17.6599 53.1025 17.6384 52.6338 17.5117C46.6934 15.8331 40.4041 15.8331 34.4638 17.5117C33.995 17.6384 33.504 17.6599 33.026 17.5745C32.5479 17.4891 32.0947 17.2991 31.6988 17.0179C29.5919 15.4558 27.2466 14.2442 24.7534 13.43C24.4403 14.9612 24.4403 16.54 24.7534 18.0712C25.1848 20.4506 24.6775 22.9046 23.3379 24.9179C21.9036 27.0977 21.1371 29.649 21.1325 32.2583C21.1325 45.0629 27.3209 48.4862 36.6034 49.6712C37.2108 49.7466 37.7851 49.9898 38.2619 50.3736C38.7387 50.7574 39.0991 51.2665 39.3025 51.8437C39.4939 52.4039 39.5307 53.0052 39.4091 53.5845C39.2874 54.1638 39.0118 54.6996 38.6113 55.1354C37.971 55.8198 37.4796 56.6294 37.168 57.5132C36.8564 58.397 36.7314 59.3358 36.8009 60.2704V69.125C36.8009 69.998 36.4541 70.8352 35.8367 71.4526C35.2194 72.0699 34.3822 72.4167 33.5092 72.4167C32.6362 72.4167 31.7989 72.0699 31.1816 71.4526C30.5643 70.8352 30.2175 69.998 30.2175 69.125V67.2487C26.983 67.6207 23.7067 67.1873 20.6802 65.987C17.6537 64.7868 14.9708 62.8569 12.8704 60.3692C11.7908 59.1725 10.4954 58.1898 9.0521 57.4725C8.6328 57.3644 8.23889 57.1748 7.89286 56.9145C7.54684 56.6542 7.25547 56.3283 7.03539 55.9554C6.81532 55.5825 6.67085 55.1699 6.61023 54.7412C6.54961 54.3124 6.57403 53.876 6.6821 53.4567C6.79017 53.0374 6.97976 52.6434 7.24006 52.2974C7.50036 51.9514 7.82627 51.66 8.19917 51.4399C8.57208 51.2199 8.98468 51.0754 9.41342 51.0148C9.84215 50.9542 10.2786 50.9786 10.6979 51.0867C13.23 52.0091 15.4926 53.5476 17.2813 55.5633C20.5729 58.855 23.8646 61.7517 30.1188 60.5667C30.0088 58.7993 30.2666 57.0284 30.8759 55.3658C24.095 53.6542 14.4175 48.7825 14.4175 32.3242C14.4088 28.4256 15.5542 24.6117 17.7092 21.3629C18.1095 20.7632 18.2628 20.0321 18.1371 19.3221C17.4719 15.769 17.8492 12.0993 19.2234 8.75582C19.4101 8.31001 19.6927 7.91079 20.0511 7.58652C20.4095 7.26224 20.8349 7.02088 21.2971 6.87957C22.4163 6.5504 26.4321 5.89207 34.0359 10.8296C40.1912 9.34833 46.6101 9.34833 52.7654 10.8296C60.3692 5.89207 64.385 6.51748 65.4713 6.87957C65.9335 7.02088 66.3589 7.26224 66.7173 7.58652C67.0757 7.91079 67.3583 8.31001 67.545 8.75582C68.9219 12.1101 69.2991 15.7911 68.6313 19.355C68.5639 19.6761 68.5612 20.0074 68.6234 20.3296C68.6856 20.6517 68.8113 20.9582 68.9934 21.2312C71.1546 24.4894 72.3002 28.3157 72.285 32.2254C72.285 48.9142 62.6733 53.7529 55.8267 55.2671C56.4298 57.0334 56.676 58.9019 56.5509 60.7642V69.125C56.5524 69.9648 56.2328 70.7735 55.6576 71.3854C55.0824 71.9974 54.295 72.3663 53.4567 72.4167V72.4167Z"/>
</svg>
