<svg viewBox="0 0 24 24" fill="none" xmlns="http://www.w3.org/2000/svg">
    <path
        d="M5.004 7.00001H4.975C4.66795 7.0192 4.36024 6.97479 4.07114 6.86956C3.78204 6.76434 3.51778 6.60055 3.2949 6.38847C3.07203 6.17639 2.89534 5.92058 2.7759 5.63706C2.65645 5.35354 2.59683 5.04841 2.60077 4.74078C2.6047 4.43315 2.67211 4.12965 2.79876 3.84927C2.92541 3.5689 3.10859 3.31769 3.33681 3.11138C3.56504 2.90507 3.8334 2.7481 4.1251 2.6503C4.41679 2.5525 4.72554 2.51597 5.032 2.54301C5.33906 2.52156 5.64724 2.56377 5.93723 2.66699C6.22722 2.77021 6.49275 2.93221 6.7172 3.14285C6.94165 3.35349 7.12017 3.60822 7.24157 3.89108C7.36298 4.17393 7.42464 4.47881 7.42271 4.78662C7.42078 5.09442 7.35528 5.3985 7.23034 5.67981C7.10539 5.96112 6.92368 6.21359 6.69661 6.42139C6.46953 6.62919 6.20198 6.78785 5.91072 6.88742C5.61946 6.98699 5.31077 7.02532 5.004 7.00001V7.00001ZM3.018 10H7.018V22H3.018V10ZM17.518 10C16.844 10.0018 16.1791 10.156 15.5731 10.4508C14.967 10.7457 14.4354 11.1738 14.018 11.703V10H10.018V22H14.018V16.5C14.018 15.9696 14.2287 15.4609 14.6038 15.0858C14.9789 14.7107 15.4876 14.5 16.018 14.5C16.5484 14.5 17.0571 14.7107 17.4322 15.0858C17.8073 15.4609 18.018 15.9696 18.018 16.5V22H22.018V14.5C22.018 13.3065 21.5439 12.1619 20.7 11.318C19.8561 10.4741 18.7115 10 17.518 10Z" />
</svg>