<svg viewBox="0 0 60 60" fill="none" xmlns="http://www.w3.org/2000/svg">
<g clip-path="url(#clip0_16_257)">
<path d="M58.4646 58.7361H46.2756C45.4134 58.7361 44.7166 58.0393 44.7166 57.1771V37.5472C44.7166 30.8149 41.2441 30.8149 40.0985 30.8149C37.0158 30.8149 35.7047 33.248 35.2795 34.2993C35.0787 34.7718 34.9842 35.5748 34.9842 36.697V57.1891C34.9842 58.0513 34.2874 58.7481 33.4253 58.7481H21.2245C20.8111 58.7481 20.4095 58.5827 20.1142 58.2875C19.819 57.9923 19.6536 57.5906 19.6654 57.1772C19.6654 56.8465 19.8308 23.9292 19.6654 20.5631C19.6418 20.1379 19.7953 19.7245 20.0906 19.4174C20.3859 19.1103 20.7875 18.9331 21.2244 18.9331H33.4253C34.2874 18.9331 34.9843 19.6299 34.9843 20.4921V21.4134C37.0394 19.5827 40.0039 18.0708 44.4213 18.0708C54.189 18.0708 60.0236 24.8267 60.0236 36.1417V57.1771C60.0236 58.0393 59.3268 58.7361 58.4646 58.7361V58.7361ZM47.8347 55.6181L56.9174 55.6179V36.1415C56.9174 26.6336 52.3702 21.1888 44.4331 21.1888C39.13 21.1888 36.5552 23.8345 34.9371 26.2557C34.7481 26.8935 34.1457 27.366 33.4371 27.366H33.3544C32.7874 27.366 32.2678 27.0589 31.9962 26.5629C31.7836 26.1731 31.7363 25.7242 31.878 25.3109V22.0393H22.819C22.9017 28.5472 22.819 49.6063 22.7954 55.6063H31.8662V36.685C31.8662 35.1141 32.0316 33.9803 32.3859 33.1181C33.756 29.7283 36.6378 27.685 40.0867 27.685C45.0001 27.685 47.8228 31.2756 47.8228 37.5354V55.6181H47.8348L47.8347 55.6181ZM14.4804 58.7359H2.27959C1.41738 58.7359 0.720586 58.0391 0.720586 57.1769V20.492C0.720586 19.6298 1.41738 18.9329 2.27959 18.9329H14.4804C15.3426 18.9329 16.0394 19.6298 16.0394 20.4919V57.177C16.0394 58.0392 15.3426 58.736 14.4804 58.736V58.7359ZM3.83871 55.618H12.9213V22.0509H3.83877V55.6179L3.83871 55.618ZM8.38588 17.0431L8.30315 17.043C3.49605 17.043 0 13.7123 0 9.12967C0 4.55883 3.55512 1.22807 8.4685 1.22807C13.2992 1.22807 16.7481 4.46426 16.8426 9.09422C16.8426 13.7123 13.2875 17.043 8.38588 17.043V17.0431ZM8.4685 4.35803C5.2677 4.35803 3.11813 6.28324 3.11813 9.14156C3.11813 11.9525 5.24414 13.925 8.3032 13.925H8.38582C11.5748 13.925 13.7244 11.9998 13.7244 9.1415C13.6654 6.24779 11.5985 4.35803 8.4685 4.35803V4.35803Z" fill="#00ADE7"/>
</g>
<defs>
<clipPath id="clip0_16_257">
<rect width="60" height="60" fill="white"/>
</clipPath>
</defs>
</svg>
