<svg viewBox="0 0 79 79" fill="none" xmlns="http://www.w3.org/2000/svg">
<path d="M49.8687 27.65C47.3458 27.6414 44.846 28.1303 42.5123 29.0887C40.1785 30.0472 38.0567 31.4564 36.2681 33.2358C34.4796 35.0152 33.0595 37.1298 32.089 39.4585C31.1185 41.7873 30.6168 44.2846 30.6125 46.8075V66.1625C30.6125 66.9482 30.9246 67.7017 31.4802 68.2573C32.0358 68.8129 32.7893 69.125 33.575 69.125H40.4875C41.2732 69.125 42.0267 68.8129 42.5823 68.2573C43.1379 67.7017 43.45 66.9482 43.45 66.1625V46.8075C43.4493 45.9102 43.6378 45.0228 44.0031 44.2033C44.3684 43.3837 44.9023 42.6503 45.57 42.0509C46.2378 41.4515 47.0243 40.9995 47.8784 40.7245C48.7325 40.4494 49.635 40.3575 50.5271 40.4546C52.1268 40.6561 53.597 41.4377 54.6588 42.6512C55.7206 43.8646 56.3001 45.4256 56.2875 47.0379V66.1625C56.2875 66.9482 56.5996 67.7017 57.1552 68.2573C57.7108 68.8129 58.4643 69.125 59.25 69.125H66.1625C66.9482 69.125 67.7017 68.8129 68.2573 68.2573C68.8129 67.7017 69.125 66.9482 69.125 66.1625V46.8075C69.1207 44.2846 68.6189 41.7873 67.6485 39.4585C66.678 37.1298 65.2579 35.0152 63.4693 33.2358C61.6808 31.4564 59.5589 30.0472 57.2252 29.0887C54.8915 28.1303 52.3916 27.6414 49.8687 27.65Z"/>
<path d="M21.725 30.6125H12.8375C11.2014 30.6125 9.875 31.9389 9.875 33.575V66.1625C9.875 67.7987 11.2014 69.125 12.8375 69.125H21.725C23.3611 69.125 24.6875 67.7987 24.6875 66.1625V33.575C24.6875 31.9389 23.3611 30.6125 21.725 30.6125Z"/>
<path d="M17.2812 24.6875C21.3716 24.6875 24.6875 21.3716 24.6875 17.2812C24.6875 13.1909 21.3716 9.875 17.2812 9.875C13.1909 9.875 9.875 13.1909 9.875 17.2812C9.875 21.3716 13.1909 24.6875 17.2812 24.6875Z"/>
</svg>
