<svg viewBox="0 0 43 43" fill="none" xmlns="http://www.w3.org/2000/svg">
    <path
        d="M19.3114 5.63987C19.511 5.23572 19.8196 4.89544 20.2024 4.65751C20.5852 4.41958 21.027 4.29349 21.4777 4.29349C21.9284 4.29349 22.3702 4.41958 22.753 4.65751C23.1358 4.89544 23.4445 5.23572 23.644 5.63987L27.7269 13.9131L36.8565 15.2419C37.3028 15.3063 37.7222 15.4943 38.0672 15.7846C38.4122 16.075 38.6691 16.4561 38.8088 16.8848C38.9484 17.3136 38.9653 17.7729 38.8575 18.2107C38.7497 18.6486 38.5215 19.0475 38.1987 19.3624L31.5897 25.8022L33.1494 34.8942C33.2258 35.3386 33.1763 35.7955 33.0065 36.2133C32.8367 36.631 32.5533 36.9929 32.1885 37.258C31.8238 37.523 31.3921 37.6807 30.9423 37.7132C30.4925 37.7457 30.0427 37.6516 29.6436 37.4417L21.4777 33.1467L13.3118 37.4417C12.9128 37.6516 12.4629 37.7457 12.0131 37.7132C11.5634 37.6807 11.1317 37.523 10.7669 37.258C10.4021 36.9929 10.1187 36.631 9.94894 36.2133C9.77914 35.7955 9.72964 35.3386 9.80604 34.8942L11.363 25.8022L4.75942 19.3597C4.43748 19.0449 4.20993 18.6464 4.10244 18.2091C3.99495 17.7718 4.0118 17.3132 4.15109 16.885C4.29038 16.4569 4.54656 16.0761 4.89074 15.7858C5.23491 15.4954 5.65338 15.307 6.09892 15.2419L15.2258 13.9131L19.3114 5.63987ZM21.475 7.31761L17.5719 15.2285C17.3986 15.5793 17.1427 15.8828 16.8261 16.1129C16.5096 16.343 16.1418 16.4927 15.7546 16.5492L7.02234 17.8189L13.3414 23.9768C13.6216 24.2506 13.8311 24.5884 13.9517 24.9611C14.0724 25.3338 14.1006 25.7302 14.0339 26.1163L12.5441 34.8137L20.3556 30.7066C20.7021 30.5246 21.0877 30.4295 21.479 30.4295C21.8704 30.4295 22.256 30.5246 22.6025 30.7066L30.414 34.8137L28.9215 26.1163C28.8548 25.7302 28.883 25.3338 29.0037 24.9611C29.1243 24.5884 29.3338 24.2506 29.614 23.9768L35.9331 17.8189L27.2008 16.5492C26.8136 16.4927 26.4458 16.343 26.1293 16.1129C25.8127 15.8828 25.5568 15.5793 25.3835 15.2285L21.475 7.31761Z"
        fill="#151B72" stroke="#151B72" />
</svg>