<svg viewBox="0 0 512 470" fill="none" xmlns="http://www.w3.org/2000/svg">
<path d="M258.9 48C141.92 46.42 46.42 141.92 48 258.9C49.56 371.09 140.91 462.44 253.1 464C370.1 465.6 465.58 370.1 463.98 253.12C462.44 140.91 371.09 49.56 258.9 48ZM242.11 240.47L293.66 181.47C296.453 178.274 300.401 176.319 304.635 176.034C308.87 175.749 313.044 177.157 316.24 179.95C319.436 182.743 321.391 186.691 321.677 190.925C321.962 195.16 320.553 199.334 317.76 202.53L266.21 261.53C264.827 263.112 263.146 264.407 261.263 265.34C259.38 266.273 257.332 266.825 255.235 266.967C253.138 267.108 251.034 266.834 249.043 266.162C247.052 265.49 245.212 264.433 243.63 263.05C242.048 261.667 240.753 259.986 239.82 258.103C238.887 256.22 238.335 254.172 238.194 252.075C238.052 249.978 238.326 247.874 238.998 245.883C239.67 243.892 240.727 242.052 242.11 240.47V240.47ZM203.25 331.32C200.25 334.318 196.182 336.003 191.94 336.003C187.698 336.003 183.63 334.318 180.63 331.32L132.68 283.32C131.195 281.833 130.017 280.069 129.214 278.127C128.41 276.185 127.997 274.104 127.998 272.003C127.999 269.902 128.414 267.821 129.219 265.88C130.024 263.939 131.203 262.175 132.69 260.69C134.177 259.205 135.941 258.027 137.883 257.224C139.825 256.42 141.906 256.007 144.007 256.008C146.108 256.009 148.189 256.424 150.13 257.229C152.071 258.034 153.835 259.213 155.32 260.7L203.32 308.7C206.309 311.71 207.981 315.783 207.968 320.025C207.955 324.266 206.258 328.329 203.25 331.32ZM380.05 202.53L268.17 330.53C266.729 332.182 264.963 333.519 262.983 334.46C261.003 335.401 258.851 335.925 256.66 336H256.12C254.018 336 251.936 335.586 249.993 334.782C248.051 333.977 246.286 332.797 244.8 331.31L196.86 283.31C193.86 280.308 192.176 276.237 192.178 271.993C192.18 267.749 193.868 263.68 196.87 260.68C199.872 257.68 203.943 255.996 208.187 255.998C212.431 256 216.5 257.688 219.5 260.69L249.3 290.52C250.075 291.295 251 291.902 252.019 292.305C253.039 292.707 254.13 292.896 255.225 292.86C256.32 292.823 257.396 292.562 258.386 292.092C259.376 291.623 260.259 290.955 260.98 290.13L355.98 181.47C358.773 178.274 362.721 176.319 366.955 176.034C371.19 175.749 375.364 177.157 378.56 179.95C381.756 182.743 383.711 186.691 383.996 190.925C384.282 195.16 382.873 199.334 380.08 202.53H380.05Z" fill="#151B72"/>
</svg>
