<svg viewBox="0 0 32 32" fill="none" xmlns="http://www.w3.org/2000/svg">
<g clip-path="url(#clip0_140_16)">
<path d="M31.937 6.093C30.7394 6.6195 29.4708 6.96722 28.172 7.125C29.5411 6.30329 30.566 5.01334 31.057 3.494C29.7621 4.245 28.3527 4.77842 26.885 5.073C25.8981 4.01846 24.5907 3.31912 23.1657 3.08349C21.7407 2.84787 20.2777 3.08912 19.0039 3.76983C17.73 4.45054 16.7163 5.53264 16.1202 6.84825C15.5241 8.16385 15.3789 9.63941 15.707 11.046C10.254 10.791 5.42005 8.171 2.18705 4.213C1.59852 5.21388 1.29072 6.35492 1.29605 7.516C1.29524 8.59536 1.56099 9.65822 2.06969 10.6102C2.57838 11.5622 3.31429 12.3738 4.21205 12.973C3.17167 12.9415 2.15396 12.6614 1.24405 12.156V12.235C1.24373 13.75 1.76726 15.2186 2.7259 16.3917C3.68455 17.5649 5.01933 18.3705 6.50405 18.672C5.94164 18.8223 5.36218 18.8992 4.78005 18.901C4.35905 18.901 3.95705 18.86 3.55605 18.786C3.97858 20.0897 4.79705 21.2293 5.89756 22.046C6.99806 22.8628 8.32583 23.3162 9.69605 23.343C7.37446 25.1611 4.50983 26.1475 1.56105 26.144C1.03875 26.1461 0.516808 26.1167 -0.00195312 26.056C3.00614 27.9835 6.50441 29.0067 10.077 29.004C22.144 29.004 28.738 19.009 28.738 10.353C28.738 10.077 28.738 9.796 28.717 9.514C30.0069 8.58954 31.1186 7.43895 31.998 6.118L31.937 6.093Z" fill="#151B72"/>
</g>
<defs>
<clipPath id="clip0_140_16">
<rect width="32" height="32" fill="white"/>
</clipPath>
</defs>
</svg>
