<svg viewBox="0 0 79 79" fill="none" xmlns="http://www.w3.org/2000/svg">
<path d="M28.0121 65.8334H27.7487C22.4438 65.787 17.2155 64.5614 12.4425 62.2455C11.5645 61.8331 10.8416 61.1505 10.3796 60.2975C9.91762 59.4446 9.74078 58.4662 9.875 57.5055C10.021 56.5383 10.4688 55.642 11.1545 54.9444C11.8402 54.2469 12.7288 53.7838 13.6933 53.6213C16.6513 53.2267 19.4968 52.2296 22.0542 50.6918C17.6142 47.2204 14.1961 42.6126 12.1621 37.3566C10.1281 32.1006 9.5539 26.3922 10.5004 20.8363C10.6287 19.9563 11.0072 19.1317 11.5908 18.4606C12.1743 17.7895 12.9384 17.3002 13.7921 17.0509C14.6226 16.7901 15.5115 16.7789 16.3483 17.0189C17.1851 17.2588 17.933 17.7392 18.4992 18.4005C20.4215 20.9212 22.8372 23.0239 25.599 24.5802C28.3607 26.1365 31.4106 27.1138 34.5625 27.4526C34.7131 23.5745 36.3796 19.9104 39.2037 17.2484C40.6139 15.8981 42.2787 14.8419 44.1011 14.1414C45.9236 13.441 47.8672 13.1102 49.8187 13.1684C51.7703 13.2266 53.6907 13.6726 55.4682 14.4805C57.2456 15.2883 58.8445 16.4419 60.1717 17.8738C60.5174 18.1795 60.947 18.3743 61.4048 18.433C61.8626 18.4917 62.3275 18.4116 62.7392 18.203C63.524 17.8328 64.3979 17.6935 65.259 17.8012C66.12 17.909 66.9326 18.2593 67.6021 18.8115C68.2715 19.3636 68.7702 20.0947 69.0398 20.9195C69.3095 21.7443 69.339 22.6287 69.125 23.4697C68.3658 26.5971 66.9273 29.5191 64.9117 32.028C64.4674 41.392 60.3391 50.2006 53.4268 56.5332C46.5146 62.8658 37.3791 66.2089 28.0121 65.8334V65.8334ZM28.0121 59.2501H28.2754C32.1025 59.3817 35.9177 58.7523 39.4998 57.3984C43.0818 56.0445 46.3595 53.993 49.1427 51.3629C51.926 48.7327 54.1594 45.5762 55.7136 42.0764C57.2678 38.5766 58.1118 34.8031 58.1967 30.9747C58.251 29.9255 58.6837 28.9315 59.4146 28.1768C60.2174 27.1604 60.9021 26.0561 61.4554 24.8851C60.2696 24.8873 59.0966 24.6393 58.0132 24.1572C56.9299 23.675 55.9604 22.9697 55.1683 22.0872C54.4066 21.3319 53.5019 20.7362 52.5071 20.3349C51.5124 19.9336 50.4475 19.7348 49.375 19.7501C48.2917 19.7221 47.2136 19.9083 46.2024 20.2981C45.1913 20.6878 44.2671 21.2735 43.4829 22.0213C42.4249 23.0253 41.6491 24.2895 41.2332 25.6875C40.8173 27.0855 40.7758 28.5681 41.1129 29.9872L41.9687 33.7397L38.1175 34.003C34.1711 34.3248 30.2019 33.785 26.4848 32.4209C22.7677 31.0568 19.3915 28.9011 16.59 26.103C16.4698 30.4361 17.5538 34.7177 19.7213 38.4717C21.8889 42.2257 25.0551 45.3049 28.8679 47.3672L31.995 49.1447L29.9212 52.1072C27.6786 55.0484 24.6058 57.2498 21.0996 58.4272C23.3488 58.9909 25.6604 59.2674 27.9792 59.2501H28.0121Z"/>
</svg>
