<svg viewBox="0 0 60 60" fill="none" xmlns="http://www.w3.org/2000/svg">
<g clip-path="url(#clip0_16_253)">
<path d="M40.1015 9.29813C43.1999 9.29813 45.9973 10.5659 47.9679 12.6012C50.4195 12.1268 52.7304 11.2624 54.807 10.0652C54.0036 12.5047 52.2945 14.5512 50.0718 15.8459C52.2468 15.5899 54.3289 15.0312 56.2611 14.1959C54.8127 16.2902 52.9893 18.1343 50.8836 19.608C50.9033 20.0552 50.9146 20.5071 50.9146 20.9571C50.9146 34.7692 40.0743 50.7001 20.2518 50.7001C14.1674 50.7001 8.50025 48.9639 3.73406 45.9996C4.58672 46.0987 5.44442 46.1481 6.30281 46.1476C11.3513 46.1476 16.0003 44.4779 19.6893 41.6711C14.9709 41.5904 10.9884 38.5651 9.62244 34.4148C10.2914 34.5401 10.9706 34.6032 11.6512 34.6032C12.6309 34.6032 13.5853 34.4767 14.4871 34.2367C9.55775 33.2795 5.84244 29.0542 5.84244 23.9869V23.8529C7.2965 24.6366 8.95682 25.1072 10.7259 25.1616C7.83275 23.2847 5.93057 20.0897 5.93057 16.4625C5.93057 14.5453 6.46313 12.7491 7.39031 11.2106C12.7041 17.5313 20.6447 21.6938 29.6025 22.1316C29.4178 21.3684 29.3222 20.5622 29.3222 19.7513C29.3222 13.9772 34.1474 9.29813 40.1015 9.29813V9.29813ZM56.261 14.1978H56.2704H56.261ZM40.1013 5.54836C32.7382 5.54836 26.6381 10.9278 25.6986 17.8784C19.6743 16.6681 14.1955 13.4787 10.2589 8.79967C9.90704 8.38105 9.46781 8.04447 8.97208 7.81354C8.47634 7.58261 7.93609 7.46292 7.3892 7.46285C7.29099 7.46288 7.19281 7.46663 7.09488 7.4741C6.50048 7.52171 5.92594 7.71013 5.41878 8.02378C4.91162 8.33743 4.48642 8.7673 4.17832 9.27785C2.87095 11.4471 2.18019 13.932 2.18045 16.4647C2.18045 18.155 2.48414 19.8013 3.05982 21.3407C2.4467 22.0222 2.09326 22.9138 2.09326 23.855V23.9891C2.09326 27.6623 3.54545 31.071 5.9567 33.6257C5.81795 34.2688 5.84889 34.9419 6.06076 35.5869C6.89238 38.1172 8.40645 40.2979 10.3696 41.959C9.05139 42.2525 7.69113 42.4006 6.30264 42.4006C5.56857 42.4006 4.8542 42.3603 4.17826 42.2777C4.02826 42.259 3.88014 42.2524 3.73107 42.2524C2.15607 42.2524 0.726387 43.2452 0.195762 44.7593C-0.386425 46.4187 0.259571 48.258 1.75201 49.1871C7.29082 52.6334 13.6883 54.453 20.2508 54.453C41.5808 54.453 54.4114 37.7552 54.6608 21.4446C56.4111 19.9965 57.9573 18.3182 59.2573 16.4552C59.751 15.807 60.0178 15.0144 60.0167 14.1996C60.0167 12.9237 59.3783 11.7959 58.4061 11.118C58.8271 9.67518 58.347 8.1133 57.1751 7.15893C56.4908 6.60205 55.6517 6.31893 54.808 6.31893C54.1503 6.31831 53.5042 6.49133 52.9348 6.82049C51.6954 7.53493 50.3698 8.10024 48.9739 8.50717C46.4482 6.60686 43.317 5.54842 40.1013 5.54836V5.54836Z" fill="#00ADE7"/>
</g>
<defs>
<clipPath id="clip0_16_253">
<rect width="60" height="60" fill="white"/>
</clipPath>
</defs>
</svg>
