<svg viewBox="0 0 43 43" fill="none" xmlns="http://www.w3.org/2000/svg">
    <path
        d="M36.0096 32.029C35.2184 30.1548 34.0701 28.4524 32.6289 27.0166C31.192 25.5767 29.4898 24.4286 27.6165 23.6359C27.5997 23.6275 27.5829 23.6233 27.5661 23.6149C30.1793 21.7274 31.8781 18.6528 31.8781 15.184C31.8781 9.43755 27.2222 4.78168 21.4758 4.78168C15.7293 4.78168 11.0734 9.43755 11.0734 15.184C11.0734 18.6528 12.7722 21.7274 15.3854 23.6191C15.3686 23.6275 15.3518 23.6317 15.335 23.6401C13.4559 24.4328 11.7697 25.5695 10.3226 27.0208C8.88271 28.4577 7.73466 30.1598 6.94188 32.0332C6.16306 33.8673 5.74303 35.8336 5.70451 37.8258C5.70339 37.8705 5.71124 37.9151 5.72761 37.9568C5.74397 37.9985 5.76851 38.0364 5.79978 38.0685C5.83105 38.1005 5.86842 38.126 5.90969 38.1434C5.95096 38.1608 5.99529 38.1697 6.04007 38.1697H8.55676C8.74131 38.1697 8.88812 38.0229 8.89232 37.8426C8.97621 34.6044 10.2765 31.5718 12.5751 29.2732C14.9533 26.895 18.1118 25.5863 21.4758 25.5863C24.8397 25.5863 27.9982 26.895 30.3764 29.2732C32.675 31.5718 33.9753 34.6044 34.0592 37.8426C34.0634 38.0271 34.2102 38.1697 34.3947 38.1697H36.9114C36.9562 38.1697 37.0005 38.1608 37.0418 38.1434C37.0831 38.126 37.1205 38.1005 37.1517 38.0685C37.183 38.0364 37.2075 37.9985 37.2239 37.9568C37.2403 37.9151 37.2481 37.8705 37.247 37.8258C37.205 35.8208 36.7898 33.8704 36.0096 32.029ZM21.4758 22.3985C19.5505 22.3985 17.7385 21.6477 16.3753 20.2845C15.0121 18.9213 14.2612 17.1092 14.2612 15.184C14.2612 13.2587 15.0121 11.4467 16.3753 10.0835C17.7385 8.72029 19.5505 7.96948 21.4758 7.96948C23.401 7.96948 25.213 8.72029 26.5762 10.0835C27.9394 11.4467 28.6903 13.2587 28.6903 15.184C28.6903 17.1092 27.9394 18.9213 26.5762 20.2845C25.213 21.6477 23.401 22.3985 21.4758 22.3985Z"
        fill="#151B72" stroke="#151B72" stroke-width="0.5" />
</svg>